<svg xmlns="http://www.w3.org/2000/svg" viewBox="0 0 867.169 330"><defs><style>.cls-1{fill:#b3b3b3;}.cls-2{fill:#fff;stroke:#fff;}.cls-2,.cls-7{stroke-miterlimit:10;}.cls-3{fill:#39b54a;}.cls-4{fill:#ff7f8a;}.cls-5{fill:#00647f;}.cls-6{fill:#0071bc;}.cls-7{fill:#ccc;stroke:#00647f;stroke-width:4px;}</style></defs><g id="レイヤー_2" data-name="レイヤー 2"><g id="レイヤー_1-2" data-name="レイヤー 1"><rect class="cls-1" x="21" y="186" width="401" height="105" rx="3"/><path class="cls-2" d="M43.258,286.031H40.331l-8.569-14.14a82.6,82.6,0,0,1-4.831-8.957l-.141.035c.247,3.421.282,6.559.282,11.214v11.848H24.321v-26.87H27.39L36.064,273.3a83.884,83.884,0,0,1,4.69,8.78l.07-.035c-.281-3.738-.352-6.947-.352-11.179V259.161h2.786Z"/><path class="cls-2" d="M65.473,276.264c0,7.158-4.726,10.19-8.993,10.19-4.937,0-8.745-3.7-8.745-9.908,0-6.56,4.09-10.192,8.992-10.192C61.981,266.354,65.473,270.374,65.473,276.264Zm-8.852-7.618c-4.161,0-5.889,4.091-5.889,7.793,0,4.267,2.363,7.723,5.819,7.723,3.491,0,5.924-3.456,5.924-7.793C62.475,272.948,60.817,268.646,56.621,268.646Z"/><path class="cls-2" d="M85.43,281.271c0,1.551.07,3.456.141,4.76h-2.61l-.141-3.279h-.1a6.8,6.8,0,0,1-6.278,3.7c-4.443,0-7.9-3.844-7.9-9.767,0-6.489,3.809-10.3,8.286-10.3a6.174,6.174,0,0,1,5.608,2.962h.07V257.82H85.43ZM82.5,274.5c0-3.844-2.715-5.748-5.184-5.748-3.632,0-5.783,3.386-5.783,7.794,0,4.055,1.9,7.511,5.678,7.511,3.173,0,5.289-2.786,5.289-5.854Z"/><path class="cls-2" d="M104.823,285.22a13.935,13.935,0,0,1-6.03,1.2c-5.606,0-8.956-3.949-8.956-9.7,0-6.031,3.385-10.368,8.568-10.368,5.925,0,7.441,5.431,7.441,8.781,0,.67-.035,1.164-.071,1.622H92.693c.036,5.325,3.068,7.335,6.524,7.335a12.135,12.135,0,0,0,5.042-.988Zm-1.869-10.65c.036-2.609-1.058-5.994-4.831-5.994-3.526,0-5.077,3.35-5.359,5.994Z"/><path class="cls-2" d="M137.758,286.031h-3.1l-2.891-8.71h-9.345l-2.82,8.71h-3l8.886-26.87h3.385Zm-6.595-11.037-2.644-7.97c-.564-1.834-1.023-3.526-1.375-5.113h-.106c-.352,1.622-.847,3.315-1.341,5.008l-2.679,8.075Z"/><rect class="cls-3" x="21" width="95" height="181" rx="3"/><path class="cls-2" d="M37.755,88.1,35,98.07H33.889l-1.3-5.335a29.012,29.012,0,0,1-.669-3.3H31.9a28.973,28.973,0,0,1-.787,3.29L29.668,98.07H28.554L26.076,88.1h1.153l1.22,5.19c.288,1.259.564,2.464.734,3.46h.039c.144-1.009.472-2.188.8-3.473L31.4,88.1h1.1l1.258,5.164c.275,1.193.564,2.386.708,3.473H34.5c.2-1.14.473-2.241.787-3.473l1.35-5.164Z"/><path class="cls-2" d="M45.048,94.439c0,2.662-1.757,3.789-3.343,3.789-1.835,0-3.25-1.376-3.25-3.683,0-2.439,1.521-3.788,3.342-3.788C43.75,90.757,45.048,92.251,45.048,94.439Zm-3.29-2.831c-1.547,0-2.189,1.521-2.189,2.9,0,1.586.878,2.871,2.162,2.871s2.2-1.285,2.2-2.9C43.934,93.207,43.317,91.608,41.758,91.608Z"/><path class="cls-2" d="M49.967,91.845a3.112,3.112,0,0,0-.394-.027c-1.179,0-1.782,1.166-1.782,2.372v3.88H46.7V93.063c0-.76-.014-1.455-.053-2.136h.957l.052,1.376h.04a2.139,2.139,0,0,1,1.94-1.533,2.82,2.82,0,0,1,.328.039Z"/><path class="cls-2" d="M56.784,98.07H55.447l-2.464-3.525-.655.747V98.07H51.24V87.584h1.088v6.672h.026c.17-.249.419-.564.616-.8l2.136-2.53h1.311L53.73,93.876Z"/><path class="cls-2" d="M58.845,98.07H57.757V87.584h1.088Z"/><path class="cls-2" d="M67.077,94.439c0,2.662-1.757,3.789-3.343,3.789-1.835,0-3.25-1.376-3.25-3.683,0-2.439,1.521-3.788,3.342-3.788C65.779,90.757,67.077,92.251,67.077,94.439Zm-3.29-2.831c-1.547,0-2.188,1.521-2.188,2.9,0,1.586.878,2.871,2.162,2.871s2.2-1.285,2.2-2.9C65.963,93.207,65.347,91.608,63.787,91.608Z"/><path class="cls-2" d="M73.411,96.366a9.966,9.966,0,0,0,.106,1.7h-1l-.106-.918h-.039a2.482,2.482,0,0,1-2.11,1.076A1.98,1.98,0,0,1,68.182,96.2c0-1.717,1.494-2.648,4.141-2.634,0-.6,0-1.966-1.625-1.966a3.093,3.093,0,0,0-1.743.51l-.263-.747a4.071,4.071,0,0,1,2.176-.6c2.019,0,2.543,1.429,2.543,2.844Zm-1.074-2c-1.351,0-3.041.2-3.041,1.7a1.188,1.188,0,0,0,1.231,1.325,1.747,1.747,0,0,0,1.81-1.678Z"/><path class="cls-2" d="M81.278,96.3c0,.577.027,1.284.053,1.769h-.97l-.052-1.218H80.27a2.528,2.528,0,0,1-2.333,1.376C76.284,98.228,75,96.8,75,94.6c0-2.411,1.416-3.827,3.08-3.827a2.292,2.292,0,0,1,2.084,1.1h.026V87.584h1.088ZM80.19,93.784a1.975,1.975,0,0,0-1.926-2.137c-1.35,0-2.15,1.259-2.15,2.9,0,1.507.708,2.791,2.111,2.791A2.055,2.055,0,0,0,80.19,95.16Z"/><path class="cls-2" d="M86.525,88.214a12.544,12.544,0,0,1,2.268-.2c3.225,0,3.486,2.071,3.486,2.857,0,2.347-1.874,3.186-3.643,3.186a4.158,4.158,0,0,1-1.023-.092v4.1H86.525Zm1.088,4.849a3.967,3.967,0,0,0,1.049.105c1.572,0,2.529-.786,2.529-2.215S90.169,88.9,88.806,88.9a5.764,5.764,0,0,0-1.193.1Z"/><path class="cls-2" d="M100.029,94.439c0,2.662-1.757,3.789-3.342,3.789-1.835,0-3.25-1.376-3.25-3.683,0-2.439,1.52-3.788,3.341-3.788C98.731,90.757,100.029,92.251,100.029,94.439Zm-3.29-2.831c-1.547,0-2.188,1.521-2.188,2.9,0,1.586.878,2.871,2.162,2.871s2.2-1.285,2.2-2.9C98.915,93.207,98.3,91.608,96.739,91.608Z"/><path class="cls-2" d="M107.451,96.3c0,.577.027,1.284.053,1.769h-.97l-.053-1.218h-.039a2.526,2.526,0,0,1-2.333,1.376c-1.652,0-2.936-1.429-2.936-3.631,0-2.411,1.416-3.827,3.08-3.827a2.292,2.292,0,0,1,2.084,1.1h.026V87.584h1.088Zm-1.088-2.517a1.976,1.976,0,0,0-1.926-2.137c-1.35,0-2.15,1.259-2.15,2.9,0,1.507.708,2.791,2.11,2.791a2.055,2.055,0,0,0,1.966-2.176Z"/><rect class="cls-4" x="261" y="229" width="157" height="28" rx="3"/><path class="cls-2" d="M277.276,247.816h-.983l-.228-4.113c-.072-1.307-.168-3-.156-3.934h-.036c-.3,1.031-.672,2.159-1.115,3.43l-1.631,4.581H272.4l-1.524-4.485c-.443-1.319-.792-2.471-1.044-3.526h-.035c-.024,1.115-.1,2.627-.181,4.03l-.251,4.017h-.948l.636-9.138h1.223l1.608,4.641c.384,1.139.683,2.111.923,3.058h.036c.227-.923.54-1.883.947-3.058l1.667-4.641H276.7Z"/><path class="cls-2" d="M283.314,246.257a9.136,9.136,0,0,0,.1,1.559H282.5l-.1-.839h-.036a2.273,2.273,0,0,1-1.93.983,1.812,1.812,0,0,1-1.908-1.858c0-1.572,1.367-2.423,3.79-2.412,0-.551,0-1.8-1.487-1.8a2.836,2.836,0,0,0-1.595.467l-.24-.683a3.721,3.721,0,0,1,1.991-.552c1.847,0,2.326,1.308,2.326,2.6Zm-.983-1.835c-1.235,0-2.782.181-2.782,1.559a1.087,1.087,0,0,0,1.128,1.211,1.6,1.6,0,0,0,1.654-1.535Z"/><path class="cls-2" d="M289.651,247.576a4.158,4.158,0,0,1-1.775.372,3.042,3.042,0,0,1-3.106-3.334,3.27,3.27,0,0,1,3.346-3.49,3.6,3.6,0,0,1,1.571.348l-.251.8a2.655,2.655,0,0,0-1.344-.336,2.35,2.35,0,0,0-2.3,2.616,2.3,2.3,0,0,0,2.267,2.578,3.277,3.277,0,0,0,1.415-.324Z"/><path class="cls-2" d="M296.274,247.816h-1v-3.862c0-1.067-.383-1.99-1.51-1.99a1.781,1.781,0,0,0-1.728,1.835v4.017h-1v-9.594h1v4.065h.024a2.4,2.4,0,0,1,2.028-1.163c.8,0,2.182.492,2.182,2.711Z"/><path class="cls-2" d="M298.7,240.129a.647.647,0,0,1-.648-.684.653.653,0,0,1,.66-.672.679.679,0,0,1-.012,1.356Zm.5,7.687h-1V241.28h1Z"/><path class="cls-2" d="M306.414,247.816h-1v-3.862c0-1.067-.384-2-1.522-2a1.782,1.782,0,0,0-1.716,1.86v4h-1v-4.857c0-.672-.025-1.163-.048-1.691h.887l.06,1.067h.024a2.334,2.334,0,0,1,2.1-1.211c.815,0,2.207.492,2.207,2.711Z"/><path class="cls-2" d="M312.979,247.541a4.749,4.749,0,0,1-2.051.407,2.975,2.975,0,0,1-3.047-3.3c0-2.05,1.151-3.526,2.914-3.526,2.016,0,2.531,1.847,2.531,2.986,0,.228-.012.4-.024.552h-4.449c.011,1.811,1.043,2.5,2.218,2.5a4.124,4.124,0,0,0,1.715-.336Zm-.636-3.622c.011-.888-.361-2.039-1.644-2.039-1.2,0-1.726,1.14-1.823,2.039Z"/><path class="cls-2" d="M324.161,247.444a7.429,7.429,0,0,1-2.6.468c-3.586,0-4.438-2.674-4.438-4.605a4.428,4.428,0,0,1,4.677-4.713,5.3,5.3,0,0,1,2.111.384l-.263.827a4.314,4.314,0,0,0-1.872-.372c-2.159,0-3.61,1.391-3.61,3.814,0,2.471,1.379,3.85,3.466,3.85a3.5,3.5,0,0,0,1.548-.264v-2.927H321.33v-.8h2.831Z"/><path class="cls-2" d="M328.879,242.119a3.022,3.022,0,0,0-.359-.023c-1.081,0-1.632,1.067-1.632,2.171v3.549h-1v-4.581c0-.7-.012-1.332-.048-1.955h.875l.049,1.259h.035a1.957,1.957,0,0,1,1.775-1.4,2.556,2.556,0,0,1,.3.036Z"/><path class="cls-2" d="M335.6,244.494c0,2.435-1.607,3.466-3.058,3.466-1.68,0-2.975-1.259-2.975-3.37,0-2.231,1.391-3.466,3.059-3.466C334.41,241.124,335.6,242.491,335.6,244.494Zm-3.01-2.591c-1.416,0-2,1.392-2,2.652,0,1.451.8,2.626,1.978,2.626s2.015-1.175,2.015-2.651C334.578,243.367,334.015,241.9,332.588,241.9Z"/><path class="cls-2" d="M342.233,246.077c0,.672.037,1.235.061,1.739h-.9l-.048-1.031h-.035a2.372,2.372,0,0,1-2.087,1.175c-.984,0-2.148-.564-2.148-2.818V241.28h1v3.682c0,1.271.371,2.159,1.463,2.159a1.731,1.731,0,0,0,1.7-1.775V241.28h1Z"/><path class="cls-2" d="M345.14,242.384a2.42,2.42,0,0,1,2.23-1.26c1.548,0,2.663,1.331,2.663,3.334,0,2.4-1.4,3.5-2.843,3.5a2.219,2.219,0,0,1-1.966-1.043H345.2v3.574h-1v-7.112c0-.852-.024-1.512-.048-2.111h.9l.059,1.116Zm.059,2.83a1.845,1.845,0,0,0,1.835,1.943c1.284,0,1.991-1.1,1.991-2.663,0-1.355-.683-2.555-1.955-2.555a2.01,2.01,0,0,0-1.871,2.028Z"/><path class="cls-2" d="M351.272,242.3a.71.71,0,0,1,.707-.768.77.77,0,0,1,0,1.535A.715.715,0,0,1,351.272,242.3Zm0,4.905a.71.71,0,0,1,.707-.767.763.763,0,1,1-.707.767Z"/><path class="cls-2" d="M365.344,241.268l-2.075,6.548h-.888l-1.031-3.286a19.709,19.709,0,0,1-.576-2.159h-.036a16.856,16.856,0,0,1-.6,2.171l-1.092,3.274h-.9l-1.93-6.548h1.031l.911,3.43c.181.732.361,1.4.492,2.075h.036c.144-.648.36-1.355.576-2.063l1.091-3.442h.864l1.044,3.382c.227.768.42,1.463.575,2.123h.036c.12-.648.3-1.332.516-2.111l.96-3.394Z"/><path class="cls-2" d="M367.04,240.129a.647.647,0,0,1-.648-.684.653.653,0,0,1,.66-.672.679.679,0,0,1-.012,1.356Zm.5,7.687h-1V241.28h1Z"/><path class="cls-2" d="M369.787,240.093l.984-.336v1.523h1.691v.78h-1.691v3.778c0,.827.251,1.283.887,1.283a1.92,1.92,0,0,0,.672-.1l.06.768a2.5,2.5,0,0,1-.972.156c-1.583,0-1.631-1.439-1.631-2.135V242.06H368.78v-.78h1.007Z"/><path class="cls-2" d="M379,247.816h-1v-3.862c0-1.067-.384-1.99-1.511-1.99a1.781,1.781,0,0,0-1.727,1.835v4.017h-1v-9.594h1v4.065h.024a2.4,2.4,0,0,1,2.027-1.163c.8,0,2.183.492,2.183,2.711Z"/><path class="cls-2" d="M380.36,243.774h3.274v.768H380.36Z"/><path class="cls-2" d="M390.341,241.268c-.036.467-.061,1-.061,1.8v3.814c0,1.14-.023,3.754-3.118,3.754a3.915,3.915,0,0,1-2.051-.516l.264-.779a3.6,3.6,0,0,0,1.835.491c1.2,0,2.075-.636,2.075-2.362v-.78h-.024a2.235,2.235,0,0,1-2.027,1.116c-1.559,0-2.674-1.38-2.674-3.215,0-2.267,1.415-3.466,2.83-3.466a2.1,2.1,0,0,1,1.979,1.128h.024l.048-.984Zm-1.068,2.519a1.763,1.763,0,0,0-1.739-1.859c-1.151,0-1.955,1.019-1.955,2.6,0,1.392.672,2.483,1.943,2.483a1.79,1.79,0,0,0,1.751-1.919Z"/><path class="cls-2" d="M393.187,242.384a2.419,2.419,0,0,1,2.23-1.26c1.548,0,2.663,1.331,2.663,3.334,0,2.4-1.4,3.5-2.843,3.5a2.219,2.219,0,0,1-1.966-1.043h-.025v3.574h-1v-7.112c0-.852-.024-1.512-.048-2.111h.9l.059,1.116Zm.059,2.83a1.845,1.845,0,0,0,1.835,1.943c1.284,0,1.991-1.1,1.991-2.663,0-1.355-.683-2.555-1.955-2.555a2.01,2.01,0,0,0-1.871,2.028Z"/><path class="cls-2" d="M404.7,246.077c0,.672.036,1.235.061,1.739h-.9l-.048-1.031h-.035a2.37,2.37,0,0,1-2.087,1.175c-.983,0-2.147-.564-2.147-2.818V241.28h1v3.682c0,1.271.371,2.159,1.463,2.159a1.731,1.731,0,0,0,1.7-1.775V241.28h1Z"/><path class="cls-2" d="M409.733,242.275a2.339,2.339,0,0,0-1.271-.383.985.985,0,0,0-1.1.971c0,.564.372.827,1.212,1.188,1.055.431,1.667.983,1.667,1.967,0,1.163-.887,1.93-2.315,1.93a3.455,3.455,0,0,1-1.715-.443l.276-.768a3.118,3.118,0,0,0,1.475.444c.876,0,1.308-.468,1.308-1.056,0-.611-.348-.947-1.212-1.295-1.1-.443-1.667-1.056-1.667-1.847a1.931,1.931,0,0,1,2.134-1.859,2.893,2.893,0,0,1,1.5.4Z"/><rect class="cls-5" x="236" y="260" width="182" height="28" rx="3"/><path class="cls-2" d="M253.618,277.816h-.983l-.228-4.113c-.072-1.307-.168-3-.156-3.934h-.036c-.3,1.031-.672,2.159-1.115,3.43l-1.631,4.581h-.732l-1.523-4.485c-.443-1.319-.792-2.471-1.044-3.526h-.035c-.025,1.115-.1,2.627-.181,4.03l-.251,4.017h-.948l.636-9.138h1.223l1.608,4.641c.383,1.139.683,2.111.923,3.058h.036c.227-.923.54-1.883.947-3.058l1.667-4.641h1.248Z"/><path class="cls-2" d="M259.656,276.257a9.136,9.136,0,0,0,.1,1.559h-.912l-.1-.839h-.036a2.273,2.273,0,0,1-1.931.983,1.812,1.812,0,0,1-1.907-1.858c0-1.572,1.367-2.423,3.79-2.412,0-.551,0-1.8-1.487-1.8a2.831,2.831,0,0,0-1.595.467l-.24-.683a3.721,3.721,0,0,1,1.991-.552c1.847,0,2.326,1.308,2.326,2.6Zm-.983-1.835c-1.236,0-2.782.181-2.782,1.559a1.087,1.087,0,0,0,1.128,1.211,1.6,1.6,0,0,0,1.654-1.535Z"/><path class="cls-2" d="M265.993,277.576a4.158,4.158,0,0,1-1.775.372,3.043,3.043,0,0,1-3.107-3.334,3.27,3.27,0,0,1,3.347-3.49,3.6,3.6,0,0,1,1.57.348l-.251.8a2.65,2.65,0,0,0-1.343-.336,2.35,2.35,0,0,0-2.3,2.616,2.3,2.3,0,0,0,2.266,2.578,3.269,3.269,0,0,0,1.415-.324Z"/><path class="cls-2" d="M272.616,277.816h-1v-3.862c0-1.067-.384-1.99-1.511-1.99a1.781,1.781,0,0,0-1.727,1.835v4.017h-1v-9.594h1v4.065h.024a2.4,2.4,0,0,1,2.028-1.163c.8,0,2.182.492,2.182,2.711Z"/><path class="cls-2" d="M275.043,270.129a.647.647,0,0,1-.648-.684.653.653,0,0,1,.66-.672.679.679,0,0,1-.012,1.356Zm.5,7.687h-1V271.28h1Z"/><path class="cls-2" d="M282.756,277.816h-1v-3.862c0-1.067-.384-2-1.523-2a1.782,1.782,0,0,0-1.716,1.86v4h-1v-4.857c0-.672-.024-1.163-.047-1.691h.887l.06,1.067h.024a2.333,2.333,0,0,1,2.1-1.211c.815,0,2.207.492,2.207,2.711Z"/><path class="cls-2" d="M289.32,277.541a4.74,4.74,0,0,1-2.05.407,2.974,2.974,0,0,1-3.047-3.3c0-2.05,1.151-3.526,2.914-3.526,2.015,0,2.531,1.847,2.531,2.986,0,.228-.012.4-.024.552h-4.45c.012,1.811,1.043,2.5,2.219,2.5a4.124,4.124,0,0,0,1.715-.336Zm-.635-3.622c.011-.888-.361-2.039-1.644-2.039-1.2,0-1.727,1.14-1.823,2.039Z"/><path class="cls-2" d="M299.339,269.529h-2.7v8.287h-1v-8.287h-2.687v-.84h6.38Z"/><path class="cls-2" d="M305.231,271.28l-1.739,4.629c-.779,2.123-1.331,3.347-2.146,4.114a3.306,3.306,0,0,1-1.332.768l-.276-.84a3.73,3.73,0,0,0,2.111-2.35.847.847,0,0,0-.072-.277l-2.315-6.044h1.092l1.426,3.97c.168.455.313.972.42,1.367h.037c.108-.4.263-.888.419-1.391l1.32-3.946Z"/><path class="cls-2" d="M307.273,272.384a2.421,2.421,0,0,1,2.231-1.26c1.548,0,2.663,1.331,2.663,3.334,0,2.4-1.4,3.5-2.843,3.5a2.222,2.222,0,0,1-1.967-1.043h-.024v3.574h-1v-7.112c0-.852-.024-1.512-.048-2.111h.9l.06,1.116Zm.06,2.83a1.845,1.845,0,0,0,1.835,1.943c1.284,0,1.991-1.1,1.991-2.663,0-1.355-.683-2.555-1.955-2.555a2.01,2.01,0,0,0-1.871,2.028Z"/><path class="cls-2" d="M318.3,277.541a4.745,4.745,0,0,1-2.051.407,2.975,2.975,0,0,1-3.047-3.3c0-2.05,1.152-3.526,2.914-3.526,2.016,0,2.531,1.847,2.531,2.986,0,.228-.012.4-.024.552h-4.449c.012,1.811,1.043,2.5,2.219,2.5a4.122,4.122,0,0,0,1.714-.336Zm-.636-3.622c.012-.888-.36-2.039-1.643-2.039-1.2,0-1.727,1.14-1.824,2.039Z"/><path class="cls-2" d="M319.874,272.3a.71.71,0,1,1,.707.767A.71.71,0,0,1,319.874,272.3Zm0,4.9a.709.709,0,0,1,.707-.767.763.763,0,1,1-.707.767Z"/><path class="cls-2" d="M329.964,277.576a4.163,4.163,0,0,1-1.776.372,3.042,3.042,0,0,1-3.106-3.334,3.27,3.27,0,0,1,3.347-3.49,3.6,3.6,0,0,1,1.57.348l-.251.8a2.652,2.652,0,0,0-1.344-.336,2.35,2.35,0,0,0-2.3,2.616,2.3,2.3,0,0,0,2.266,2.578,3.269,3.269,0,0,0,1.415-.324Z"/><path class="cls-2" d="M336.91,274.494c0,2.435-1.606,3.466-3.057,3.466-1.68,0-2.975-1.259-2.975-3.37,0-2.231,1.391-3.466,3.059-3.466C335.723,271.124,336.91,272.491,336.91,274.494ZM333.9,271.9c-1.416,0-2,1.392-2,2.652,0,1.451.8,2.626,1.979,2.626s2.015-1.175,2.015-2.651C335.891,273.367,335.327,271.9,333.9,271.9Z"/><path class="cls-2" d="M347.324,277.816h-.983v-3.778c0-1.27-.456-2.087-1.44-2.087a1.666,1.666,0,0,0-1.535,1.752v4.113h-.983v-4.029c0-1.044-.445-1.836-1.367-1.836a1.778,1.778,0,0,0-1.608,1.86v4h-.983v-4.857c0-.672-.025-1.151-.048-1.691h.875l.06,1.055h.037a2.176,2.176,0,0,1,1.99-1.2,1.867,1.867,0,0,1,1.787,1.308h.024a2.288,2.288,0,0,1,2.1-1.308c.8,0,2.075.516,2.075,2.759Z"/><path class="cls-2" d="M350.2,272.384a2.421,2.421,0,0,1,2.231-1.26c1.548,0,2.663,1.331,2.663,3.334,0,2.4-1.4,3.5-2.843,3.5a2.222,2.222,0,0,1-1.967-1.043h-.024v3.574h-.995v-7.112c0-.852-.025-1.512-.048-2.111h.9l.06,1.116Zm.06,2.83a1.845,1.845,0,0,0,1.835,1.943c1.284,0,1.991-1.1,1.991-2.663,0-1.355-.684-2.555-1.955-2.555a2.01,2.01,0,0,0-1.871,2.028Z"/><path class="cls-2" d="M361.714,276.077c0,.672.036,1.235.06,1.739h-.9l-.048-1.031h-.035a2.372,2.372,0,0,1-2.087,1.175c-.983,0-2.147-.564-2.147-2.818V271.28h1v3.682c0,1.271.371,2.159,1.463,2.159a1.731,1.731,0,0,0,1.7-1.775V271.28h1Z"/><path class="cls-2" d="M363.948,270.093l.984-.336v1.523h1.691v.78h-1.691v3.778c0,.827.252,1.283.887,1.283a1.92,1.92,0,0,0,.672-.1l.06.768a2.494,2.494,0,0,1-.971.156c-1.584,0-1.632-1.439-1.632-2.135V272.06h-1.007v-.78h1.007Z"/><path class="cls-2" d="M372.562,277.541a4.74,4.74,0,0,1-2.05.407,2.974,2.974,0,0,1-3.047-3.3c0-2.05,1.151-3.526,2.914-3.526,2.016,0,2.531,1.847,2.531,2.986,0,.228-.012.4-.024.552h-4.449c.011,1.811,1.042,2.5,2.218,2.5a4.124,4.124,0,0,0,1.715-.336Zm-.635-3.622c.011-.888-.361-2.039-1.644-2.039-1.2,0-1.726,1.14-1.823,2.039Z"/><path class="cls-2" d="M373.825,273.774H377.1v.768h-3.274Z"/><path class="cls-2" d="M383.182,271.28l-2.16,3.166,2.219,3.37H382.1l-.984-1.523c-.24-.4-.456-.755-.7-1.175H380.4c-.2.407-.444.768-.7,1.175l-.959,1.523h-1.1l2.243-3.334-2.135-3.2h1.115l.948,1.451c.24.372.443.707.659,1.091h.036c.2-.384.431-.743.66-1.091l.923-1.451Z"/><path class="cls-2" d="M385.392,277.816h-1v-9.594h1Z"/><path class="cls-2" d="M391.653,276.257a9.136,9.136,0,0,0,.1,1.559h-.912l-.1-.839h-.036a2.273,2.273,0,0,1-1.931.983,1.812,1.812,0,0,1-1.907-1.858c0-1.572,1.367-2.423,3.79-2.412,0-.551,0-1.8-1.487-1.8a2.833,2.833,0,0,0-1.595.467l-.24-.683a3.721,3.721,0,0,1,1.991-.552c1.847,0,2.326,1.308,2.326,2.6Zm-.983-1.835c-1.235,0-2.782.181-2.782,1.559a1.087,1.087,0,0,0,1.128,1.211,1.6,1.6,0,0,0,1.654-1.535Z"/><path class="cls-2" d="M396.562,272.119a2.994,2.994,0,0,0-.359-.023c-1.08,0-1.632,1.067-1.632,2.171v3.549h-1v-4.581c0-.7-.012-1.332-.048-1.955h.875l.049,1.259h.035a1.958,1.958,0,0,1,1.776-1.4,2.515,2.515,0,0,1,.3.036Z"/><path class="cls-2" d="M403.042,271.268c-.036.467-.061,1-.061,1.8v3.814c0,1.14-.023,3.754-3.118,3.754a3.915,3.915,0,0,1-2.051-.516l.264-.779a3.6,3.6,0,0,0,1.835.491c1.2,0,2.075-.636,2.075-2.362v-.78h-.024a2.233,2.233,0,0,1-2.026,1.116c-1.56,0-2.675-1.38-2.675-3.215,0-2.267,1.415-3.466,2.83-3.466a2.1,2.1,0,0,1,1.979,1.128h.024l.049-.984Zm-1.067,2.519a1.763,1.763,0,0,0-1.74-1.859c-1.151,0-1.955,1.019-1.955,2.6,0,1.392.672,2.483,1.944,2.483a1.79,1.79,0,0,0,1.751-1.919Z"/><path class="cls-2" d="M409.582,277.541a4.745,4.745,0,0,1-2.051.407,2.975,2.975,0,0,1-3.047-3.3c0-2.05,1.152-3.526,2.914-3.526,2.016,0,2.532,1.847,2.532,2.986,0,.228-.012.4-.025.552h-4.449c.012,1.811,1.043,2.5,2.219,2.5a4.131,4.131,0,0,0,1.715-.336Zm-.636-3.622c.012-.888-.36-2.039-1.643-2.039-1.2,0-1.727,1.14-1.824,2.039Z"/><rect class="cls-6" x="123" width="95" height="181" rx="3"/><path class="cls-2" d="M129.882,78.634a12.532,12.532,0,0,1,2.267-.2c3.225,0,3.487,2.071,3.487,2.857,0,2.347-1.874,3.185-3.644,3.185a4.148,4.148,0,0,1-1.022-.091v4.1h-1.088Zm1.088,4.849a3.962,3.962,0,0,0,1.049.1c1.572,0,2.529-.786,2.529-2.215s-1.023-2.058-2.386-2.058a5.727,5.727,0,0,0-1.192.105Z"/><path class="cls-2" d="M143.386,84.859c0,2.662-1.757,3.788-3.343,3.788-1.835,0-3.25-1.376-3.25-3.682,0-2.439,1.52-3.788,3.342-3.788C142.088,81.177,143.386,82.671,143.386,84.859Zm-3.29-2.831c-1.547,0-2.189,1.521-2.189,2.9,0,1.586.878,2.871,2.162,2.871s2.2-1.285,2.2-2.9C142.271,83.627,141.655,82.028,140.1,82.028Z"/><path class="cls-2" d="M150.808,86.721c0,.577.026,1.284.052,1.769h-.969l-.053-1.219H149.8a2.526,2.526,0,0,1-2.333,1.376c-1.653,0-2.937-1.428-2.937-3.63,0-2.412,1.416-3.828,3.08-3.828a2.292,2.292,0,0,1,2.084,1.1h.027V78h1.088ZM149.72,84.2a1.976,1.976,0,0,0-1.927-2.137c-1.35,0-2.149,1.259-2.149,2.9,0,1.507.708,2.791,2.11,2.791a2.055,2.055,0,0,0,1.966-2.176Z"/><path class="cls-2" d="M156.3,80.049l1.074-.367v1.665h1.849V82.2h-1.849v4.128c0,.905.275,1.4.971,1.4a2.138,2.138,0,0,0,.733-.105l.065.839a2.735,2.735,0,0,1-1.061.171c-1.73,0-1.782-1.573-1.782-2.333V82.2h-1.1v-.852h1.1Z"/><path class="cls-2" d="M166.726,84.859c0,2.662-1.757,3.788-3.343,3.788-1.835,0-3.25-1.376-3.25-3.682,0-2.439,1.52-3.788,3.342-3.788C165.428,81.177,166.726,82.671,166.726,84.859Zm-3.29-2.831c-1.547,0-2.189,1.521-2.189,2.9,0,1.586.878,2.871,2.162,2.871s2.2-1.285,2.2-2.9C165.611,83.627,165,82.028,163.436,82.028Z"/><path class="cls-2" d="M174.7,82.265a3.1,3.1,0,0,0-.393-.027c-1.18,0-1.783,1.166-1.783,2.372v3.88h-1.087V83.483c0-.76-.014-1.455-.053-2.136h.957l.052,1.376h.04a2.138,2.138,0,0,1,1.939-1.534,2.823,2.823,0,0,1,.328.04Z"/><path class="cls-2" d="M181.031,88.188a5.153,5.153,0,0,1-2.241.447c-2.084,0-3.329-1.469-3.329-3.605,0-2.242,1.259-3.853,3.185-3.853,2.2,0,2.766,2.018,2.766,3.263,0,.249-.014.433-.026.6h-4.864c.014,1.979,1.141,2.727,2.425,2.727a4.506,4.506,0,0,0,1.875-.368Zm-.694-3.958c.013-.969-.394-2.228-1.8-2.228-1.311,0-1.887,1.245-1.992,2.228Z"/><path class="cls-2" d="M186.382,82.435a2.561,2.561,0,0,0-1.39-.419,1.075,1.075,0,0,0-1.2,1.061c0,.616.406.9,1.323,1.3,1.154.472,1.823,1.074,1.823,2.149,0,1.272-.97,2.111-2.531,2.111a3.779,3.779,0,0,1-1.874-.486l.3-.838a3.4,3.4,0,0,0,1.612.485c.957,0,1.429-.512,1.429-1.153,0-.669-.381-1.037-1.324-1.416-1.206-.486-1.822-1.154-1.822-2.019a2.111,2.111,0,0,1,2.334-2.031,3.158,3.158,0,0,1,1.637.432Z"/><path class="cls-2" d="M193.658,88.188a5.153,5.153,0,0,1-2.241.447c-2.084,0-3.329-1.469-3.329-3.605,0-2.242,1.259-3.853,3.185-3.853,2.2,0,2.766,2.018,2.766,3.263,0,.249-.014.433-.026.6h-4.864c.014,1.979,1.141,2.727,2.425,2.727a4.506,4.506,0,0,0,1.875-.368Zm-.694-3.958c.013-.969-.394-2.228-1.8-2.228-1.311,0-1.887,1.245-1.992,2.228Z"/><path class="cls-2" d="M198.931,82.265a3.126,3.126,0,0,0-.394-.027c-1.18,0-1.782,1.166-1.782,2.372v3.88h-1.088V83.483c0-.76-.014-1.455-.053-2.136h.957l.052,1.376h.04a2.14,2.14,0,0,1,1.94-1.534,2.849,2.849,0,0,1,.328.04Z"/><path class="cls-2" d="M205.7,81.347l-2.713,7.143H201.96l-2.635-7.156h1.167l1.429,4.154c.223.643.419,1.245.576,1.835h.04c.157-.59.367-1.192.59-1.835l1.415-4.141Z"/><path class="cls-2" d="M211.989,88.188a5.153,5.153,0,0,1-2.241.447c-2.084,0-3.329-1.469-3.329-3.605,0-2.242,1.259-3.853,3.185-3.853,2.2,0,2.766,2.018,2.766,3.263,0,.249-.014.433-.026.6H207.48c.014,1.979,1.141,2.727,2.425,2.727a4.506,4.506,0,0,0,1.875-.368ZM211.3,84.23c.014-.969-.394-2.228-1.8-2.228-1.311,0-1.887,1.245-1.992,2.228Z"/><path class="cls-2" d="M147.11,105.212a3.112,3.112,0,0,0-.393-.026c-1.18,0-1.782,1.166-1.782,2.372v3.88h-1.088v-5.007c0-.761-.014-1.455-.053-2.137h.957l.052,1.376h.04a2.137,2.137,0,0,1,1.939-1.533,2.82,2.82,0,0,1,.328.039Z"/><path class="cls-2" d="M153.442,111.136a5.171,5.171,0,0,1-2.241.446c-2.084,0-3.329-1.469-3.329-3.6,0-2.243,1.259-3.854,3.186-3.854,2.2,0,2.765,2.019,2.765,3.264,0,.249-.013.432-.026.6h-4.863c.013,1.98,1.14,2.727,2.424,2.727a4.525,4.525,0,0,0,1.875-.367Zm-.694-3.958c.014-.97-.394-2.229-1.8-2.229-1.31,0-1.887,1.245-1.992,2.229Z"/><path class="cls-2" d="M158.793,105.382a2.561,2.561,0,0,0-1.39-.419,1.075,1.075,0,0,0-1.2,1.061c0,.617.406.905,1.323,1.3,1.154.472,1.823,1.074,1.823,2.15,0,1.271-.97,2.11-2.531,2.11a3.789,3.789,0,0,1-1.874-.485l.3-.839a3.4,3.4,0,0,0,1.613.485c.957,0,1.428-.512,1.428-1.153,0-.669-.381-1.036-1.324-1.416-1.206-.486-1.822-1.153-1.822-2.019a2.111,2.111,0,0,1,2.334-2.031,3.149,3.149,0,0,1,1.637.433Z"/><path class="cls-2" d="M167.079,107.807c0,2.661-1.757,3.788-3.343,3.788-1.835,0-3.25-1.376-3.25-3.683,0-2.438,1.521-3.788,3.342-3.788C165.781,104.124,167.079,105.618,167.079,107.807Zm-3.29-2.831c-1.547,0-2.188,1.52-2.188,2.9,0,1.586.878,2.871,2.162,2.871s2.2-1.285,2.2-2.9C165.965,106.574,165.349,104.976,163.789,104.976Z"/><path class="cls-2" d="M174.331,109.537c0,.734.039,1.35.065,1.9h-.983l-.052-1.127h-.04a2.589,2.589,0,0,1-2.28,1.284c-1.075,0-2.347-.616-2.347-3.08v-4.221h1.088v4.024c0,1.389.406,2.36,1.6,2.36a1.892,1.892,0,0,0,1.861-1.941v-4.443h1.088Z"/><path class="cls-2" d="M179.748,105.212a3.116,3.116,0,0,0-.394-.026c-1.179,0-1.782,1.166-1.782,2.372v3.88h-1.088v-5.007c0-.761-.013-1.455-.052-2.137h.957l.051,1.376h.04a2.139,2.139,0,0,1,1.94-1.533,2.82,2.82,0,0,1,.328.039Z"/><path class="cls-2" d="M185.845,111.176a4.576,4.576,0,0,1-1.941.406,3.325,3.325,0,0,1-3.394-3.644,3.572,3.572,0,0,1,3.657-3.814,3.928,3.928,0,0,1,1.717.38l-.276.878a2.894,2.894,0,0,0-1.467-.367,2.567,2.567,0,0,0-2.517,2.857,2.519,2.519,0,0,0,2.478,2.818,3.583,3.583,0,0,0,1.546-.353Z"/><path class="cls-2" d="M192.427,111.136a5.175,5.175,0,0,1-2.241.446c-2.084,0-3.33-1.469-3.33-3.6,0-2.243,1.259-3.854,3.186-3.854,2.2,0,2.766,2.019,2.766,3.264,0,.249-.014.432-.027.6h-4.863c.014,1.98,1.141,2.727,2.425,2.727a4.532,4.532,0,0,0,1.875-.367Zm-.695-3.958c.014-.97-.393-2.229-1.795-2.229-1.311,0-1.887,1.245-1.993,2.229Z"/><path class="cls-2" d="M197.777,105.382a2.557,2.557,0,0,0-1.389-.419,1.075,1.075,0,0,0-1.205,1.061c0,.617.406.905,1.323,1.3,1.153.472,1.822,1.074,1.822,2.15,0,1.271-.97,2.11-2.53,2.11a3.786,3.786,0,0,1-1.874-.485l.3-.839a3.4,3.4,0,0,0,1.612.485c.957,0,1.429-.512,1.429-1.153,0-.669-.381-1.036-1.325-1.416-1.206-.486-1.822-1.153-1.822-2.019a2.112,2.112,0,0,1,2.334-2.031,3.152,3.152,0,0,1,1.638.433Z"/><rect class="cls-6" x="226" width="95" height="181" rx="3"/><path class="cls-2" d="M232.882,78.634a12.532,12.532,0,0,1,2.267-.2c3.225,0,3.487,2.071,3.487,2.857,0,2.347-1.874,3.185-3.644,3.185a4.148,4.148,0,0,1-1.022-.091v4.1h-1.088Zm1.088,4.849a3.962,3.962,0,0,0,1.049.1c1.572,0,2.529-.786,2.529-2.215s-1.023-2.058-2.386-2.058a5.727,5.727,0,0,0-1.192.105Z"/><path class="cls-2" d="M246.386,84.859c0,2.662-1.757,3.788-3.343,3.788-1.835,0-3.25-1.376-3.25-3.682,0-2.439,1.52-3.788,3.342-3.788C245.088,81.177,246.386,82.671,246.386,84.859Zm-3.29-2.831c-1.547,0-2.189,1.521-2.189,2.9,0,1.586.878,2.871,2.162,2.871s2.2-1.285,2.2-2.9C245.271,83.627,244.655,82.028,243.1,82.028Z"/><path class="cls-2" d="M253.808,86.721c0,.577.026,1.284.052,1.769h-.969l-.053-1.219H252.8a2.526,2.526,0,0,1-2.333,1.376c-1.653,0-2.937-1.428-2.937-3.63,0-2.412,1.416-3.828,3.08-3.828a2.292,2.292,0,0,1,2.084,1.1h.027V78h1.088ZM252.72,84.2a1.976,1.976,0,0,0-1.927-2.137c-1.35,0-2.149,1.259-2.149,2.9,0,1.507.708,2.791,2.11,2.791a2.055,2.055,0,0,0,1.966-2.176Z"/><path class="cls-2" d="M259.3,80.049l1.074-.367v1.665h1.849V82.2h-1.849v4.128c0,.905.275,1.4.971,1.4a2.138,2.138,0,0,0,.733-.105l.065.839a2.735,2.735,0,0,1-1.061.171c-1.73,0-1.782-1.573-1.782-2.333V82.2h-1.1v-.852h1.1Z"/><path class="cls-2" d="M269.726,84.859c0,2.662-1.757,3.788-3.343,3.788-1.835,0-3.25-1.376-3.25-3.682,0-2.439,1.52-3.788,3.342-3.788C268.428,81.177,269.726,82.671,269.726,84.859Zm-3.29-2.831c-1.547,0-2.189,1.521-2.189,2.9,0,1.586.878,2.871,2.162,2.871s2.2-1.285,2.2-2.9C268.611,83.627,268,82.028,266.436,82.028Z"/><path class="cls-2" d="M277.7,82.265a3.1,3.1,0,0,0-.393-.027c-1.18,0-1.783,1.166-1.783,2.372v3.88h-1.087V83.483c0-.76-.014-1.455-.053-2.136h.957l.052,1.376h.04a2.138,2.138,0,0,1,1.939-1.534,2.823,2.823,0,0,1,.328.04Z"/><path class="cls-2" d="M284.031,88.188a5.153,5.153,0,0,1-2.241.447c-2.084,0-3.329-1.469-3.329-3.605,0-2.242,1.259-3.853,3.185-3.853,2.2,0,2.766,2.018,2.766,3.263,0,.249-.014.433-.026.6h-4.864c.014,1.979,1.141,2.727,2.425,2.727a4.506,4.506,0,0,0,1.875-.368Zm-.694-3.958c.013-.969-.394-2.228-1.8-2.228-1.311,0-1.887,1.245-1.992,2.228Z"/><path class="cls-2" d="M289.382,82.435a2.561,2.561,0,0,0-1.39-.419,1.075,1.075,0,0,0-1.205,1.061c0,.616.406.9,1.323,1.3,1.154.472,1.823,1.074,1.823,2.149,0,1.272-.97,2.111-2.531,2.111a3.779,3.779,0,0,1-1.874-.486l.3-.838a3.4,3.4,0,0,0,1.612.485c.957,0,1.429-.512,1.429-1.153,0-.669-.381-1.037-1.324-1.416-1.206-.486-1.822-1.154-1.822-2.019a2.111,2.111,0,0,1,2.334-2.031,3.158,3.158,0,0,1,1.637.432Z"/><path class="cls-2" d="M296.658,88.188a5.153,5.153,0,0,1-2.241.447c-2.084,0-3.329-1.469-3.329-3.605,0-2.242,1.259-3.853,3.185-3.853,2.2,0,2.766,2.018,2.766,3.263,0,.249-.014.433-.026.6h-4.864c.014,1.979,1.141,2.727,2.425,2.727a4.506,4.506,0,0,0,1.875-.368Zm-.694-3.958c.013-.969-.394-2.228-1.8-2.228-1.311,0-1.887,1.245-1.992,2.228Z"/><path class="cls-2" d="M301.931,82.265a3.126,3.126,0,0,0-.394-.027c-1.18,0-1.782,1.166-1.782,2.372v3.88h-1.088V83.483c0-.76-.014-1.455-.053-2.136h.957l.052,1.376h.04a2.14,2.14,0,0,1,1.94-1.534,2.849,2.849,0,0,1,.328.04Z"/><path class="cls-2" d="M308.7,81.347l-2.713,7.143H304.96l-2.635-7.156h1.167l1.429,4.154c.223.643.419,1.245.576,1.835h.04c.157-.59.367-1.192.59-1.835l1.415-4.141Z"/><path class="cls-2" d="M314.989,88.188a5.153,5.153,0,0,1-2.241.447c-2.084,0-3.329-1.469-3.329-3.605,0-2.242,1.259-3.853,3.185-3.853,2.2,0,2.766,2.018,2.766,3.263,0,.249-.014.433-.026.6H310.48c.014,1.979,1.141,2.727,2.425,2.727a4.506,4.506,0,0,0,1.875-.368ZM314.3,84.23c.014-.969-.394-2.228-1.8-2.228-1.311,0-1.887,1.245-1.992,2.228Z"/><path class="cls-2" d="M250.11,105.212a3.112,3.112,0,0,0-.393-.026c-1.18,0-1.782,1.166-1.782,2.372v3.88h-1.088v-5.007c0-.761-.014-1.455-.053-2.137h.957l.052,1.376h.04a2.137,2.137,0,0,1,1.939-1.533,2.82,2.82,0,0,1,.328.039Z"/><path class="cls-2" d="M256.442,111.136a5.171,5.171,0,0,1-2.241.446c-2.084,0-3.329-1.469-3.329-3.6,0-2.243,1.259-3.854,3.186-3.854,2.2,0,2.765,2.019,2.765,3.264,0,.249-.013.432-.026.6h-4.863c.013,1.98,1.14,2.727,2.424,2.727a4.525,4.525,0,0,0,1.875-.367Zm-.694-3.958c.014-.97-.394-2.229-1.8-2.229-1.31,0-1.887,1.245-1.992,2.229Z"/><path class="cls-2" d="M261.793,105.382a2.561,2.561,0,0,0-1.39-.419,1.075,1.075,0,0,0-1.205,1.061c0,.617.406.905,1.323,1.3,1.154.472,1.823,1.074,1.823,2.15,0,1.271-.97,2.11-2.531,2.11a3.789,3.789,0,0,1-1.874-.485l.3-.839a3.4,3.4,0,0,0,1.613.485c.957,0,1.428-.512,1.428-1.153,0-.669-.381-1.036-1.324-1.416-1.206-.486-1.822-1.153-1.822-2.019a2.111,2.111,0,0,1,2.334-2.031,3.149,3.149,0,0,1,1.637.433Z"/><path class="cls-2" d="M270.079,107.807c0,2.661-1.757,3.788-3.343,3.788-1.835,0-3.25-1.376-3.25-3.683,0-2.438,1.521-3.788,3.342-3.788C268.781,104.124,270.079,105.618,270.079,107.807Zm-3.29-2.831c-1.547,0-2.188,1.52-2.188,2.9,0,1.586.878,2.871,2.162,2.871s2.2-1.285,2.2-2.9C268.965,106.574,268.349,104.976,266.789,104.976Z"/><path class="cls-2" d="M277.331,109.537c0,.734.039,1.35.065,1.9h-.983l-.052-1.127h-.04a2.589,2.589,0,0,1-2.28,1.284c-1.075,0-2.347-.616-2.347-3.08v-4.221h1.088v4.024c0,1.389.406,2.36,1.6,2.36a1.892,1.892,0,0,0,1.861-1.941v-4.443h1.088Z"/><path class="cls-2" d="M282.748,105.212a3.116,3.116,0,0,0-.394-.026c-1.179,0-1.782,1.166-1.782,2.372v3.88h-1.088v-5.007c0-.761-.013-1.455-.052-2.137h.957l.051,1.376h.04a2.139,2.139,0,0,1,1.94-1.533,2.82,2.82,0,0,1,.328.039Z"/><path class="cls-2" d="M288.845,111.176a4.576,4.576,0,0,1-1.941.406,3.325,3.325,0,0,1-3.394-3.644,3.572,3.572,0,0,1,3.657-3.814,3.928,3.928,0,0,1,1.717.38l-.276.878a2.894,2.894,0,0,0-1.467-.367,2.567,2.567,0,0,0-2.517,2.857,2.519,2.519,0,0,0,2.478,2.818,3.583,3.583,0,0,0,1.546-.353Z"/><path class="cls-2" d="M295.427,111.136a5.175,5.175,0,0,1-2.241.446c-2.084,0-3.33-1.469-3.33-3.6,0-2.243,1.259-3.854,3.186-3.854,2.2,0,2.766,2.019,2.766,3.264,0,.249-.014.432-.027.6h-4.863c.014,1.98,1.141,2.727,2.425,2.727a4.532,4.532,0,0,0,1.875-.367Zm-.695-3.958c.014-.97-.393-2.229-1.8-2.229-1.311,0-1.887,1.245-1.993,2.229Z"/><path class="cls-2" d="M300.777,105.382a2.557,2.557,0,0,0-1.389-.419,1.075,1.075,0,0,0-1.2,1.061c0,.617.406.905,1.323,1.3,1.153.472,1.822,1.074,1.822,2.15,0,1.271-.97,2.11-2.53,2.11a3.786,3.786,0,0,1-1.874-.485l.3-.839a3.4,3.4,0,0,0,1.612.485c.957,0,1.429-.512,1.429-1.153,0-.669-.381-1.036-1.325-1.416-1.206-.486-1.822-1.153-1.822-2.019a2.112,2.112,0,0,1,2.334-2.031,3.152,3.152,0,0,1,1.638.433Z"/><rect class="cls-3" x="327" width="95" height="181" rx="3"/><path class="cls-2" d="M343.755,88.1,341,98.07h-1.113l-1.3-5.335a29.012,29.012,0,0,1-.669-3.3H337.9a28.973,28.973,0,0,1-.787,3.29l-1.441,5.347h-1.114L332.076,88.1h1.153l1.22,5.19c.288,1.259.564,2.464.734,3.46h.039c.144-1.009.472-2.188.8-3.473L337.4,88.1h1.1l1.258,5.164c.275,1.193.564,2.386.708,3.473h.039c.2-1.14.473-2.241.787-3.473l1.35-5.164Z"/><path class="cls-2" d="M351.048,94.439c0,2.662-1.757,3.789-3.343,3.789-1.835,0-3.25-1.376-3.25-3.683,0-2.439,1.521-3.788,3.342-3.788C349.75,90.757,351.048,92.251,351.048,94.439Zm-3.29-2.831c-1.547,0-2.189,1.521-2.189,2.9,0,1.586.878,2.871,2.162,2.871s2.2-1.285,2.2-2.9C349.934,93.207,349.317,91.608,347.758,91.608Z"/><path class="cls-2" d="M355.967,91.845a3.112,3.112,0,0,0-.394-.027c-1.179,0-1.782,1.166-1.782,2.372v3.88H352.7V93.063c0-.76-.014-1.455-.053-2.136h.957l.052,1.376h.04a2.139,2.139,0,0,1,1.94-1.533,2.82,2.82,0,0,1,.328.039Z"/><path class="cls-2" d="M362.784,98.07h-1.337l-2.464-3.525-.655.747V98.07H357.24V87.584h1.088v6.672h.026c.17-.249.419-.564.616-.8l2.136-2.53h1.311l-2.687,2.949Z"/><path class="cls-2" d="M364.845,98.07h-1.088V87.584h1.088Z"/><path class="cls-2" d="M373.077,94.439c0,2.662-1.757,3.789-3.343,3.789-1.835,0-3.25-1.376-3.25-3.683,0-2.439,1.521-3.788,3.342-3.788C371.779,90.757,373.077,92.251,373.077,94.439Zm-3.29-2.831c-1.547,0-2.188,1.521-2.188,2.9,0,1.586.878,2.871,2.162,2.871s2.2-1.285,2.2-2.9C371.963,93.207,371.347,91.608,369.787,91.608Z"/><path class="cls-2" d="M379.411,96.366a9.966,9.966,0,0,0,.106,1.7h-1l-.106-.918h-.039a2.482,2.482,0,0,1-2.11,1.076,1.98,1.98,0,0,1-2.084-2.032c0-1.717,1.494-2.648,4.141-2.634,0-.6,0-1.966-1.625-1.966a3.093,3.093,0,0,0-1.743.51l-.263-.747a4.071,4.071,0,0,1,2.176-.6c2.019,0,2.543,1.429,2.543,2.844Zm-1.074-2c-1.351,0-3.041.2-3.041,1.7a1.188,1.188,0,0,0,1.231,1.325,1.747,1.747,0,0,0,1.81-1.678Z"/><path class="cls-2" d="M387.278,96.3c0,.577.027,1.284.053,1.769h-.97l-.052-1.218h-.039a2.528,2.528,0,0,1-2.333,1.376C382.284,98.228,381,96.8,381,94.6c0-2.411,1.416-3.827,3.08-3.827a2.292,2.292,0,0,1,2.084,1.1h.026V87.584h1.088Zm-1.088-2.517a1.975,1.975,0,0,0-1.926-2.137c-1.35,0-2.15,1.259-2.15,2.9,0,1.507.708,2.791,2.111,2.791a2.055,2.055,0,0,0,1.965-2.176Z"/><path class="cls-2" d="M392.525,88.214a12.544,12.544,0,0,1,2.268-.2c3.225,0,3.486,2.071,3.486,2.857,0,2.347-1.874,3.186-3.643,3.186a4.158,4.158,0,0,1-1.023-.092v4.1h-1.088Zm1.088,4.849a3.967,3.967,0,0,0,1.049.105c1.572,0,2.529-.786,2.529-2.215s-1.022-2.057-2.385-2.057a5.764,5.764,0,0,0-1.193.1Z"/><path class="cls-2" d="M406.029,94.439c0,2.662-1.757,3.789-3.342,3.789-1.835,0-3.25-1.376-3.25-3.683,0-2.439,1.52-3.788,3.341-3.788C404.731,90.757,406.029,92.251,406.029,94.439Zm-3.29-2.831c-1.547,0-2.188,1.521-2.188,2.9,0,1.586.878,2.871,2.162,2.871s2.2-1.285,2.2-2.9C404.915,93.207,404.3,91.608,402.739,91.608Z"/><path class="cls-2" d="M413.451,96.3c0,.577.027,1.284.053,1.769h-.97l-.053-1.218h-.039a2.526,2.526,0,0,1-2.333,1.376c-1.652,0-2.936-1.429-2.936-3.631,0-2.411,1.416-3.827,3.08-3.827a2.292,2.292,0,0,1,2.084,1.1h.026V87.584h1.088Zm-1.088-2.517a1.976,1.976,0,0,0-1.926-2.137c-1.35,0-2.15,1.259-2.15,2.9,0,1.507.708,2.791,2.11,2.791a2.055,2.055,0,0,0,1.966-2.176Z"/><rect class="cls-1" x="440" y="186" width="401" height="105" rx="3"/><path class="cls-2" d="M462.258,286.031h-2.927l-8.569-14.14a82.6,82.6,0,0,1-4.831-8.957l-.141.035c.247,3.421.282,6.559.282,11.214v11.848h-2.751v-26.87h3.069l8.674,14.141a83.884,83.884,0,0,1,4.69,8.78l.07-.035c-.281-3.738-.352-6.947-.352-11.179V259.161h2.786Z"/><path class="cls-2" d="M484.473,276.264c0,7.158-4.726,10.19-8.993,10.19-4.937,0-8.745-3.7-8.745-9.908,0-6.56,4.09-10.192,8.992-10.192C480.981,266.354,484.473,270.374,484.473,276.264Zm-8.852-7.618c-4.161,0-5.889,4.091-5.889,7.793,0,4.267,2.363,7.723,5.819,7.723,3.491,0,5.924-3.456,5.924-7.793C481.475,272.948,479.817,268.646,475.621,268.646Z"/><path class="cls-2" d="M504.43,281.271c0,1.551.07,3.456.141,4.76h-2.61l-.141-3.279h-.105a6.8,6.8,0,0,1-6.278,3.7c-4.443,0-7.9-3.844-7.9-9.767,0-6.489,3.809-10.3,8.286-10.3a6.174,6.174,0,0,1,5.608,2.962h.07V257.82h2.927ZM501.5,274.5c0-3.844-2.715-5.748-5.184-5.748-3.632,0-5.783,3.386-5.783,7.794,0,4.055,1.9,7.511,5.678,7.511,3.173,0,5.289-2.786,5.289-5.854Z"/><path class="cls-2" d="M523.823,285.22a13.935,13.935,0,0,1-6.03,1.2c-5.606,0-8.956-3.949-8.956-9.7,0-6.031,3.385-10.368,8.568-10.368,5.925,0,7.441,5.431,7.441,8.781,0,.67-.035,1.164-.071,1.622H511.693c.036,5.325,3.068,7.335,6.524,7.335a12.135,12.135,0,0,0,5.042-.988Zm-1.869-10.65c.036-2.609-1.058-5.994-4.831-5.994-3.526,0-5.077,3.35-5.359,5.994Z"/><path class="cls-2" d="M547.871,271.644a6.878,6.878,0,0,1,5.537,6.77,7.07,7.07,0,0,1-2.151,5.29c-1.8,1.763-4.691,2.539-8.745,2.539a47.663,47.663,0,0,1-4.973-.282V259.549a29.09,29.09,0,0,1,5.783-.565c3.316,0,5.5.635,7.088,1.975a5.879,5.879,0,0,1,2.01,4.655,6.418,6.418,0,0,1-4.549,5.924Zm-4.267-.988c3.562,0,5.854-2.045,5.854-4.8v-.035c0-3.174-2.327-4.549-5.994-4.549a12.69,12.69,0,0,0-3,.247v9.133Zm-3.138,13.083a15.264,15.264,0,0,0,2.856.176c3.7,0,7.018-1.445,7.018-5.5,0-4.019-3.491-5.5-7.053-5.5h-2.821Z"/><rect class="cls-4" x="680" y="229" width="157" height="28" rx="3"/><path class="cls-2" d="M696.276,247.816h-.983l-.228-4.113c-.072-1.307-.168-3-.156-3.934h-.036c-.3,1.031-.672,2.159-1.115,3.43l-1.631,4.581H691.4l-1.524-4.485c-.443-1.319-.792-2.471-1.044-3.526h-.035c-.024,1.115-.1,2.627-.181,4.03l-.251,4.017h-.948l.636-9.138h1.223l1.608,4.641c.384,1.139.683,2.111.923,3.058h.036c.227-.923.54-1.883.947-3.058l1.667-4.641H695.7Z"/><path class="cls-2" d="M702.314,246.257a9.136,9.136,0,0,0,.1,1.559H701.5l-.1-.839h-.036a2.273,2.273,0,0,1-1.93.983,1.812,1.812,0,0,1-1.908-1.858c0-1.572,1.367-2.423,3.79-2.412,0-.551,0-1.8-1.487-1.8a2.836,2.836,0,0,0-1.6.467l-.24-.683a3.721,3.721,0,0,1,1.991-.552c1.847,0,2.326,1.308,2.326,2.6Zm-.983-1.835c-1.235,0-2.782.181-2.782,1.559a1.087,1.087,0,0,0,1.128,1.211,1.6,1.6,0,0,0,1.654-1.535Z"/><path class="cls-2" d="M708.651,247.576a4.158,4.158,0,0,1-1.775.372,3.042,3.042,0,0,1-3.106-3.334,3.27,3.27,0,0,1,3.346-3.49,3.6,3.6,0,0,1,1.571.348l-.251.8a2.655,2.655,0,0,0-1.344-.336,2.35,2.35,0,0,0-2.3,2.616,2.3,2.3,0,0,0,2.267,2.578,3.277,3.277,0,0,0,1.415-.324Z"/><path class="cls-2" d="M715.274,247.816h-1v-3.862c0-1.067-.383-1.99-1.51-1.99a1.781,1.781,0,0,0-1.728,1.835v4.017h-1v-9.594h1v4.065h.024a2.4,2.4,0,0,1,2.028-1.163c.8,0,2.182.492,2.182,2.711Z"/><path class="cls-2" d="M717.7,240.129a.647.647,0,0,1-.648-.684.653.653,0,0,1,.66-.672.679.679,0,0,1-.012,1.356Zm.5,7.687h-1V241.28h1Z"/><path class="cls-2" d="M725.414,247.816h-1v-3.862c0-1.067-.384-2-1.522-2a1.782,1.782,0,0,0-1.716,1.86v4h-1v-4.857c0-.672-.025-1.163-.048-1.691h.887l.06,1.067h.024a2.334,2.334,0,0,1,2.1-1.211c.815,0,2.207.492,2.207,2.711Z"/><path class="cls-2" d="M731.979,247.541a4.749,4.749,0,0,1-2.051.407,2.975,2.975,0,0,1-3.047-3.3c0-2.05,1.151-3.526,2.914-3.526,2.016,0,2.531,1.847,2.531,2.986,0,.228-.012.4-.024.552h-4.449c.011,1.811,1.043,2.5,2.218,2.5a4.124,4.124,0,0,0,1.715-.336Zm-.636-3.622c.011-.888-.361-2.039-1.644-2.039-1.2,0-1.726,1.14-1.823,2.039Z"/><path class="cls-2" d="M743.161,247.444a7.429,7.429,0,0,1-2.6.468c-3.586,0-4.438-2.674-4.438-4.605a4.428,4.428,0,0,1,4.677-4.713,5.3,5.3,0,0,1,2.111.384l-.263.827a4.314,4.314,0,0,0-1.872-.372c-2.159,0-3.61,1.391-3.61,3.814,0,2.471,1.379,3.85,3.466,3.85a3.5,3.5,0,0,0,1.548-.264v-2.927H740.33v-.8h2.831Z"/><path class="cls-2" d="M747.879,242.119a3.022,3.022,0,0,0-.359-.023c-1.081,0-1.632,1.067-1.632,2.171v3.549h-1v-4.581c0-.7-.012-1.332-.048-1.955h.875l.049,1.259h.035a1.957,1.957,0,0,1,1.775-1.4,2.556,2.556,0,0,1,.3.036Z"/><path class="cls-2" d="M754.6,244.494c0,2.435-1.607,3.466-3.058,3.466-1.68,0-2.975-1.259-2.975-3.37,0-2.231,1.391-3.466,3.059-3.466C753.41,241.124,754.6,242.491,754.6,244.494Zm-3.01-2.591c-1.416,0-2,1.392-2,2.652,0,1.451.8,2.626,1.978,2.626s2.015-1.175,2.015-2.651C753.578,243.367,753.015,241.9,751.588,241.9Z"/><path class="cls-2" d="M761.233,246.077c0,.672.037,1.235.061,1.739h-.9l-.048-1.031h-.035a2.372,2.372,0,0,1-2.087,1.175c-.984,0-2.148-.564-2.148-2.818V241.28h1v3.682c0,1.271.371,2.159,1.463,2.159a1.731,1.731,0,0,0,1.7-1.775V241.28h.995Z"/><path class="cls-2" d="M764.14,242.384a2.42,2.42,0,0,1,2.23-1.26c1.548,0,2.663,1.331,2.663,3.334,0,2.4-1.4,3.5-2.843,3.5a2.219,2.219,0,0,1-1.966-1.043H764.2v3.574h-1v-7.112c0-.852-.024-1.512-.048-2.111h.9l.059,1.116Zm.059,2.83a1.845,1.845,0,0,0,1.835,1.943c1.284,0,1.991-1.1,1.991-2.663,0-1.355-.683-2.555-1.955-2.555a2.01,2.01,0,0,0-1.871,2.028Z"/><path class="cls-2" d="M770.272,242.3a.71.71,0,0,1,.707-.768.77.77,0,0,1,0,1.535A.715.715,0,0,1,770.272,242.3Zm0,4.905a.71.71,0,0,1,.707-.767.763.763,0,1,1-.707.767Z"/><path class="cls-2" d="M784.344,241.268l-2.075,6.548h-.888l-1.031-3.286a19.709,19.709,0,0,1-.576-2.159h-.036a16.856,16.856,0,0,1-.6,2.171l-1.092,3.274h-.9l-1.93-6.548h1.031l.911,3.43c.181.732.361,1.4.492,2.075h.036c.144-.648.36-1.355.576-2.063l1.091-3.442h.864l1.044,3.382c.227.768.42,1.463.575,2.123h.036c.12-.648.3-1.332.516-2.111l.96-3.394Z"/><path class="cls-2" d="M786.04,240.129a.647.647,0,0,1-.648-.684.653.653,0,0,1,.66-.672.679.679,0,0,1-.012,1.356Zm.5,7.687h-1V241.28h1Z"/><path class="cls-2" d="M788.787,240.093l.984-.336v1.523h1.691v.78h-1.691v3.778c0,.827.251,1.283.887,1.283a1.92,1.92,0,0,0,.672-.1l.06.768a2.5,2.5,0,0,1-.972.156c-1.583,0-1.631-1.439-1.631-2.135V242.06H787.78v-.78h1.007Z"/><path class="cls-2" d="M798,247.816h-1v-3.862c0-1.067-.384-1.99-1.511-1.99a1.781,1.781,0,0,0-1.727,1.835v4.017h-1v-9.594h1v4.065h.024a2.4,2.4,0,0,1,2.027-1.163c.8,0,2.183.492,2.183,2.711Z"/><path class="cls-2" d="M799.36,243.774h3.274v.768H799.36Z"/><path class="cls-2" d="M809.341,241.268c-.036.467-.061,1-.061,1.8v3.814c0,1.14-.023,3.754-3.118,3.754a3.915,3.915,0,0,1-2.051-.516l.264-.779a3.6,3.6,0,0,0,1.835.491c1.2,0,2.075-.636,2.075-2.362v-.78h-.024a2.235,2.235,0,0,1-2.027,1.116c-1.559,0-2.674-1.38-2.674-3.215,0-2.267,1.415-3.466,2.83-3.466a2.1,2.1,0,0,1,1.979,1.128h.024l.048-.984Zm-1.068,2.519a1.763,1.763,0,0,0-1.739-1.859c-1.151,0-1.955,1.019-1.955,2.6,0,1.392.672,2.483,1.943,2.483a1.79,1.79,0,0,0,1.751-1.919Z"/><path class="cls-2" d="M812.187,242.384a2.419,2.419,0,0,1,2.23-1.26c1.548,0,2.663,1.331,2.663,3.334,0,2.4-1.4,3.5-2.843,3.5a2.219,2.219,0,0,1-1.966-1.043h-.025v3.574h-1v-7.112c0-.852-.024-1.512-.048-2.111h.9l.059,1.116Zm.059,2.83a1.845,1.845,0,0,0,1.835,1.943c1.284,0,1.991-1.1,1.991-2.663,0-1.355-.683-2.555-1.955-2.555a2.01,2.01,0,0,0-1.871,2.028Z"/><path class="cls-2" d="M823.7,246.077c0,.672.036,1.235.061,1.739h-.9l-.048-1.031h-.035a2.37,2.37,0,0,1-2.087,1.175c-.983,0-2.147-.564-2.147-2.818V241.28h1v3.682c0,1.271.371,2.159,1.463,2.159a1.731,1.731,0,0,0,1.7-1.775V241.28h1Z"/><path class="cls-2" d="M828.733,242.275a2.339,2.339,0,0,0-1.271-.383.985.985,0,0,0-1.1.971c0,.564.372.827,1.212,1.188,1.055.431,1.667.983,1.667,1.967,0,1.163-.887,1.93-2.315,1.93a3.455,3.455,0,0,1-1.715-.443l.276-.768a3.118,3.118,0,0,0,1.475.444c.876,0,1.308-.468,1.308-1.056,0-.611-.348-.947-1.212-1.295-1.1-.443-1.667-1.056-1.667-1.847a1.931,1.931,0,0,1,2.134-1.859,2.893,2.893,0,0,1,1.5.4Z"/><rect class="cls-5" x="655" y="260" width="182" height="28" rx="3"/><path class="cls-2" d="M666.354,277.816h-.983l-.227-4.113c-.073-1.307-.168-3-.157-3.934h-.036c-.3,1.031-.672,2.159-1.115,3.43l-1.631,4.581h-.731L659.95,273.3c-.443-1.319-.792-2.471-1.044-3.526h-.035c-.024,1.115-.1,2.627-.181,4.03l-.251,4.017h-.948l.636-9.138h1.224l1.607,4.641c.384,1.139.684,2.111.923,3.058h.036c.228-.923.54-1.883.947-3.058l1.667-4.641h1.248Z"/><path class="cls-2" d="M672.393,276.257a9.141,9.141,0,0,0,.1,1.559h-.912l-.1-.839h-.036a2.273,2.273,0,0,1-1.93.983,1.813,1.813,0,0,1-1.908-1.858c0-1.572,1.368-2.423,3.79-2.412,0-.551,0-1.8-1.487-1.8a2.836,2.836,0,0,0-1.595.467l-.24-.683a3.723,3.723,0,0,1,1.991-.552c1.847,0,2.327,1.308,2.327,2.6Zm-.984-1.835c-1.235,0-2.782.181-2.782,1.559a1.087,1.087,0,0,0,1.128,1.211,1.6,1.6,0,0,0,1.654-1.535Z"/><path class="cls-2" d="M678.729,277.576a4.158,4.158,0,0,1-1.775.372,3.042,3.042,0,0,1-3.106-3.334,3.27,3.27,0,0,1,3.346-3.49,3.6,3.6,0,0,1,1.571.348l-.251.8a2.655,2.655,0,0,0-1.344-.336,2.35,2.35,0,0,0-2.3,2.616,2.3,2.3,0,0,0,2.267,2.578,3.273,3.273,0,0,0,1.415-.324Z"/><path class="cls-2" d="M685.353,277.816h-1v-3.862c0-1.067-.383-1.99-1.51-1.99a1.781,1.781,0,0,0-1.728,1.835v4.017h-1v-9.594h1v4.065h.025a2.4,2.4,0,0,1,2.027-1.163c.8,0,2.183.492,2.183,2.711Z"/><path class="cls-2" d="M687.779,270.129a.678.678,0,0,1,.012-1.356.679.679,0,0,1-.012,1.356Zm.5,7.687h-1V271.28h1Z"/><path class="cls-2" d="M695.492,277.816h-1v-3.862c0-1.067-.384-2-1.522-2a1.782,1.782,0,0,0-1.716,1.86v4h-1v-4.857c0-.672-.025-1.163-.048-1.691h.888l.059,1.067h.025a2.332,2.332,0,0,1,2.1-1.211c.816,0,2.207.492,2.207,2.711Z"/><path class="cls-2" d="M702.057,277.541a4.745,4.745,0,0,1-2.051.407,2.975,2.975,0,0,1-3.047-3.3c0-2.05,1.151-3.526,2.914-3.526,2.016,0,2.531,1.847,2.531,2.986,0,.228-.011.4-.024.552h-4.449c.011,1.811,1.043,2.5,2.218,2.5a4.124,4.124,0,0,0,1.715-.336Zm-.636-3.622c.012-.888-.36-2.039-1.644-2.039-1.2,0-1.726,1.14-1.823,2.039Z"/><path class="cls-2" d="M712.075,269.529h-2.7v8.287h-1v-8.287H705.7v-.84h6.38Z"/><path class="cls-2" d="M717.968,271.28l-1.739,4.629c-.78,2.123-1.332,3.347-2.147,4.114a3.306,3.306,0,0,1-1.332.768l-.275-.84a3.731,3.731,0,0,0,2.11-2.35.84.84,0,0,0-.071-.277L712.2,271.28h1.092l1.427,3.97c.168.455.312.972.42,1.367h.036c.108-.4.264-.888.42-1.391l1.319-3.946Z"/><path class="cls-2" d="M720.01,272.384a2.42,2.42,0,0,1,2.23-1.26c1.548,0,2.663,1.331,2.663,3.334,0,2.4-1.4,3.5-2.842,3.5a2.221,2.221,0,0,1-1.967-1.043h-.025v3.574h-1v-7.112c0-.852-.023-1.512-.048-2.111h.9l.059,1.116Zm.059,2.83a1.845,1.845,0,0,0,1.835,1.943c1.284,0,1.992-1.1,1.992-2.663,0-1.355-.684-2.555-1.956-2.555a2.01,2.01,0,0,0-1.871,2.028Z"/><path class="cls-2" d="M731.036,277.541a4.745,4.745,0,0,1-2.051.407,2.975,2.975,0,0,1-3.047-3.3c0-2.05,1.152-3.526,2.915-3.526,2.015,0,2.531,1.847,2.531,2.986,0,.228-.013.4-.025.552H726.91c.012,1.811,1.043,2.5,2.219,2.5a4.128,4.128,0,0,0,1.715-.336Zm-.636-3.622c.012-.888-.36-2.039-1.643-2.039-1.2,0-1.727,1.14-1.823,2.039Z"/><path class="cls-2" d="M732.61,272.3a.71.71,0,1,1,.707.767A.71.71,0,0,1,732.61,272.3Zm0,4.9a.709.709,0,0,1,.707-.767.763.763,0,1,1-.707.767Z"/><path class="cls-2" d="M742.7,277.576a4.158,4.158,0,0,1-1.775.372,3.043,3.043,0,0,1-3.107-3.334,3.27,3.27,0,0,1,3.347-3.49,3.6,3.6,0,0,1,1.57.348l-.251.8a2.65,2.65,0,0,0-1.343-.336,2.35,2.35,0,0,0-2.3,2.616,2.3,2.3,0,0,0,2.266,2.578,3.278,3.278,0,0,0,1.416-.324Z"/><path class="cls-2" d="M749.646,274.494c0,2.435-1.606,3.466-3.057,3.466-1.68,0-2.975-1.259-2.975-3.37,0-2.231,1.391-3.466,3.059-3.466C748.459,271.124,749.646,272.491,749.646,274.494Zm-3.009-2.591c-1.416,0-2,1.392-2,2.652,0,1.451.8,2.626,1.978,2.626s2.015-1.175,2.015-2.651C748.627,273.367,748.063,271.9,746.637,271.9Z"/><path class="cls-2" d="M760.061,277.816h-.984v-3.778c0-1.27-.456-2.087-1.439-2.087A1.665,1.665,0,0,0,756.1,273.7v4.113h-.984v-4.029c0-1.044-.444-1.836-1.367-1.836a1.777,1.777,0,0,0-1.607,1.86v4h-.984v-4.857c0-.672-.024-1.151-.048-1.691h.875l.061,1.055h.036a2.176,2.176,0,0,1,1.99-1.2,1.866,1.866,0,0,1,1.787,1.308h.025a2.286,2.286,0,0,1,2.1-1.308c.8,0,2.076.516,2.076,2.759Z"/><path class="cls-2" d="M762.933,272.384a2.42,2.42,0,0,1,2.23-1.26c1.548,0,2.663,1.331,2.663,3.334,0,2.4-1.4,3.5-2.843,3.5a2.219,2.219,0,0,1-1.966-1.043h-.025v3.574h-1v-7.112c0-.852-.024-1.512-.048-2.111h.9l.059,1.116Zm.059,2.83a1.845,1.845,0,0,0,1.835,1.943c1.284,0,1.991-1.1,1.991-2.663,0-1.355-.683-2.555-1.955-2.555a2.01,2.01,0,0,0-1.871,2.028Z"/><path class="cls-2" d="M774.45,276.077c0,.672.036,1.235.061,1.739h-.9l-.048-1.031h-.035a2.369,2.369,0,0,1-2.087,1.175c-.983,0-2.147-.564-2.147-2.818V271.28h1v3.682c0,1.271.371,2.159,1.463,2.159a1.731,1.731,0,0,0,1.7-1.775V271.28h1Z"/><path class="cls-2" d="M776.685,270.093l.983-.336v1.523h1.691v.78h-1.691v3.778c0,.827.252,1.283.888,1.283a1.924,1.924,0,0,0,.672-.1l.059.768a2.494,2.494,0,0,1-.971.156c-1.584,0-1.631-1.439-1.631-2.135V272.06h-1.007v-.78h1.007Z"/><path class="cls-2" d="M785.3,277.541a4.745,4.745,0,0,1-2.051.407,2.975,2.975,0,0,1-3.047-3.3c0-2.05,1.152-3.526,2.914-3.526,2.016,0,2.531,1.847,2.531,2.986,0,.228-.011.4-.024.552h-4.449c.012,1.811,1.043,2.5,2.219,2.5a4.122,4.122,0,0,0,1.714-.336Zm-.636-3.622c.012-.888-.36-2.039-1.643-2.039-1.2,0-1.727,1.14-1.824,2.039Z"/><path class="cls-2" d="M786.562,273.774h3.273v.768h-3.273Z"/><path class="cls-2" d="M800.128,277.816h-.983v-3.778c0-1.27-.457-2.087-1.44-2.087a1.665,1.665,0,0,0-1.535,1.752v4.113h-.983v-4.029c0-1.044-.445-1.836-1.368-1.836a1.777,1.777,0,0,0-1.607,1.86v4h-.983v-4.857c0-.672-.024-1.151-.048-1.691h.875l.06,1.055h.036a2.178,2.178,0,0,1,1.991-1.2,1.867,1.867,0,0,1,1.787,1.308h.024a2.288,2.288,0,0,1,2.1-1.308c.8,0,2.075.516,2.075,2.759Z"/><path class="cls-2" d="M806.694,277.541a4.74,4.74,0,0,1-2.05.407,2.974,2.974,0,0,1-3.047-3.3c0-2.05,1.151-3.526,2.914-3.526,2.015,0,2.531,1.847,2.531,2.986,0,.228-.013.4-.024.552h-4.45c.012,1.811,1.043,2.5,2.219,2.5a4.124,4.124,0,0,0,1.715-.336Zm-.635-3.622c.011-.888-.361-2.039-1.644-2.039-1.2,0-1.727,1.14-1.823,2.039Z"/><path class="cls-2" d="M813.81,276.2c0,.528.023,1.176.047,1.619h-.887l-.048-1.115h-.036a2.311,2.311,0,0,1-2.135,1.259c-1.511,0-2.687-1.307-2.687-3.322,0-2.206,1.3-3.5,2.819-3.5a2.1,2.1,0,0,1,1.907,1.008h.023v-3.922h1Zm-1-2.3a1.807,1.807,0,0,0-1.762-1.956c-1.236,0-1.967,1.152-1.967,2.651,0,1.38.647,2.555,1.931,2.555a1.88,1.88,0,0,0,1.8-1.991Z"/><path class="cls-2" d="M816.272,270.129a.678.678,0,0,1,.012-1.356.678.678,0,0,1-.012,1.356Zm.5,7.687h-1V271.28h1Z"/><path class="cls-2" d="M823.877,276.077c0,.672.036,1.235.06,1.739h-.9l-.048-1.031h-.036a2.368,2.368,0,0,1-2.086,1.175c-.984,0-2.147-.564-2.147-2.818V271.28h1v3.682c0,1.271.371,2.159,1.463,2.159a1.731,1.731,0,0,0,1.7-1.775V271.28h1Z"/><path class="cls-2" d="M834.747,277.816h-.983v-3.778c0-1.27-.456-2.087-1.44-2.087a1.666,1.666,0,0,0-1.535,1.752v4.113h-.983v-4.029c0-1.044-.445-1.836-1.368-1.836a1.777,1.777,0,0,0-1.607,1.86v4h-.983v-4.857c0-.672-.024-1.151-.048-1.691h.875l.06,1.055h.036a2.178,2.178,0,0,1,1.991-1.2,1.867,1.867,0,0,1,1.787,1.308h.024a2.288,2.288,0,0,1,2.1-1.308c.8,0,2.075.516,2.075,2.759Z"/><rect class="cls-6" x="542" width="95" height="181" rx="3"/><path class="cls-2" d="M548.882,78.634a12.532,12.532,0,0,1,2.267-.2c3.225,0,3.487,2.071,3.487,2.857,0,2.347-1.874,3.185-3.644,3.185a4.148,4.148,0,0,1-1.022-.091v4.1h-1.088Zm1.088,4.849a3.962,3.962,0,0,0,1.049.1c1.572,0,2.529-.786,2.529-2.215s-1.023-2.058-2.386-2.058a5.727,5.727,0,0,0-1.192.105Z"/><path class="cls-2" d="M562.386,84.859c0,2.662-1.757,3.788-3.343,3.788-1.835,0-3.25-1.376-3.25-3.682,0-2.439,1.52-3.788,3.342-3.788C561.088,81.177,562.386,82.671,562.386,84.859Zm-3.29-2.831c-1.547,0-2.189,1.521-2.189,2.9,0,1.586.878,2.871,2.162,2.871s2.2-1.285,2.2-2.9C561.271,83.627,560.655,82.028,559.1,82.028Z"/><path class="cls-2" d="M569.808,86.721c0,.577.026,1.284.052,1.769h-.969l-.053-1.219H568.8a2.526,2.526,0,0,1-2.333,1.376c-1.653,0-2.937-1.428-2.937-3.63,0-2.412,1.416-3.828,3.08-3.828a2.292,2.292,0,0,1,2.084,1.1h.027V78h1.088ZM568.72,84.2a1.976,1.976,0,0,0-1.927-2.137c-1.35,0-2.149,1.259-2.149,2.9,0,1.507.708,2.791,2.11,2.791a2.055,2.055,0,0,0,1.966-2.176Z"/><path class="cls-2" d="M575.3,80.049l1.074-.367v1.665h1.849V82.2h-1.849v4.128c0,.905.275,1.4.971,1.4a2.138,2.138,0,0,0,.733-.105l.065.839a2.735,2.735,0,0,1-1.061.171c-1.73,0-1.782-1.573-1.782-2.333V82.2h-1.1v-.852h1.1Z"/><path class="cls-2" d="M585.726,84.859c0,2.662-1.757,3.788-3.343,3.788-1.835,0-3.25-1.376-3.25-3.682,0-2.439,1.52-3.788,3.342-3.788C584.428,81.177,585.726,82.671,585.726,84.859Zm-3.29-2.831c-1.547,0-2.189,1.521-2.189,2.9,0,1.586.878,2.871,2.162,2.871s2.2-1.285,2.2-2.9C584.611,83.627,584,82.028,582.436,82.028Z"/><path class="cls-2" d="M593.7,82.265a3.1,3.1,0,0,0-.393-.027c-1.18,0-1.783,1.166-1.783,2.372v3.88h-1.087V83.483c0-.76-.014-1.455-.053-2.136h.957l.052,1.376h.04a2.138,2.138,0,0,1,1.939-1.534,2.823,2.823,0,0,1,.328.04Z"/><path class="cls-2" d="M600.031,88.188a5.153,5.153,0,0,1-2.241.447c-2.084,0-3.329-1.469-3.329-3.605,0-2.242,1.259-3.853,3.185-3.853,2.2,0,2.766,2.018,2.766,3.263,0,.249-.014.433-.026.6h-4.864c.014,1.979,1.141,2.727,2.425,2.727a4.506,4.506,0,0,0,1.875-.368Zm-.694-3.958c.013-.969-.394-2.228-1.8-2.228-1.311,0-1.887,1.245-1.992,2.228Z"/><path class="cls-2" d="M605.382,82.435a2.561,2.561,0,0,0-1.39-.419,1.075,1.075,0,0,0-1.2,1.061c0,.616.406.9,1.323,1.3,1.154.472,1.823,1.074,1.823,2.149,0,1.272-.97,2.111-2.531,2.111a3.779,3.779,0,0,1-1.874-.486l.3-.838a3.4,3.4,0,0,0,1.612.485c.957,0,1.429-.512,1.429-1.153,0-.669-.381-1.037-1.324-1.416-1.206-.486-1.822-1.154-1.822-2.019a2.111,2.111,0,0,1,2.334-2.031,3.158,3.158,0,0,1,1.637.432Z"/><path class="cls-2" d="M612.658,88.188a5.153,5.153,0,0,1-2.241.447c-2.084,0-3.329-1.469-3.329-3.605,0-2.242,1.259-3.853,3.185-3.853,2.2,0,2.766,2.018,2.766,3.263,0,.249-.014.433-.026.6h-4.864c.014,1.979,1.141,2.727,2.425,2.727a4.506,4.506,0,0,0,1.875-.368Zm-.694-3.958c.013-.969-.394-2.228-1.8-2.228-1.311,0-1.887,1.245-1.992,2.228Z"/><path class="cls-2" d="M617.931,82.265a3.126,3.126,0,0,0-.394-.027c-1.18,0-1.782,1.166-1.782,2.372v3.88h-1.088V83.483c0-.76-.014-1.455-.053-2.136h.957l.052,1.376h.04a2.14,2.14,0,0,1,1.94-1.534,2.849,2.849,0,0,1,.328.04Z"/><path class="cls-2" d="M624.7,81.347l-2.713,7.143H620.96l-2.635-7.156h1.167l1.429,4.154c.223.643.419,1.245.576,1.835h.04c.157-.59.367-1.192.59-1.835l1.415-4.141Z"/><path class="cls-2" d="M630.989,88.188a5.153,5.153,0,0,1-2.241.447c-2.084,0-3.329-1.469-3.329-3.605,0-2.242,1.259-3.853,3.185-3.853,2.2,0,2.766,2.018,2.766,3.263,0,.249-.014.433-.026.6H626.48c.014,1.979,1.141,2.727,2.425,2.727a4.506,4.506,0,0,0,1.875-.368Zm-.694-3.958c.014-.969-.394-2.228-1.8-2.228-1.311,0-1.887,1.245-1.992,2.228Z"/><path class="cls-2" d="M566.11,105.212a3.112,3.112,0,0,0-.393-.026c-1.18,0-1.782,1.166-1.782,2.372v3.88h-1.088v-5.007c0-.761-.014-1.455-.053-2.137h.957l.052,1.376h.04a2.137,2.137,0,0,1,1.939-1.533,2.82,2.82,0,0,1,.328.039Z"/><path class="cls-2" d="M572.442,111.136a5.171,5.171,0,0,1-2.241.446c-2.084,0-3.329-1.469-3.329-3.6,0-2.243,1.259-3.854,3.186-3.854,2.2,0,2.765,2.019,2.765,3.264,0,.249-.013.432-.026.6h-4.863c.013,1.98,1.14,2.727,2.424,2.727a4.525,4.525,0,0,0,1.875-.367Zm-.694-3.958c.014-.97-.394-2.229-1.8-2.229-1.31,0-1.887,1.245-1.992,2.229Z"/><path class="cls-2" d="M577.793,105.382a2.561,2.561,0,0,0-1.39-.419,1.075,1.075,0,0,0-1.205,1.061c0,.617.406.905,1.323,1.3,1.154.472,1.823,1.074,1.823,2.15,0,1.271-.97,2.11-2.531,2.11a3.789,3.789,0,0,1-1.874-.485l.3-.839a3.4,3.4,0,0,0,1.613.485c.957,0,1.428-.512,1.428-1.153,0-.669-.381-1.036-1.324-1.416-1.206-.486-1.822-1.153-1.822-2.019a2.111,2.111,0,0,1,2.334-2.031,3.149,3.149,0,0,1,1.637.433Z"/><path class="cls-2" d="M586.079,107.807c0,2.661-1.757,3.788-3.343,3.788-1.835,0-3.25-1.376-3.25-3.683,0-2.438,1.521-3.788,3.342-3.788C584.781,104.124,586.079,105.618,586.079,107.807Zm-3.29-2.831c-1.547,0-2.188,1.52-2.188,2.9,0,1.586.878,2.871,2.162,2.871s2.2-1.285,2.2-2.9C584.965,106.574,584.349,104.976,582.789,104.976Z"/><path class="cls-2" d="M593.331,109.537c0,.734.039,1.35.065,1.9h-.983l-.052-1.127h-.04a2.589,2.589,0,0,1-2.28,1.284c-1.075,0-2.347-.616-2.347-3.08v-4.221h1.088v4.024c0,1.389.406,2.36,1.6,2.36a1.892,1.892,0,0,0,1.861-1.941v-4.443h1.088Z"/><path class="cls-2" d="M598.748,105.212a3.116,3.116,0,0,0-.394-.026c-1.179,0-1.782,1.166-1.782,2.372v3.88h-1.088v-5.007c0-.761-.013-1.455-.052-2.137h.957l.051,1.376h.04a2.139,2.139,0,0,1,1.94-1.533,2.82,2.82,0,0,1,.328.039Z"/><path class="cls-2" d="M604.845,111.176a4.576,4.576,0,0,1-1.941.406,3.325,3.325,0,0,1-3.394-3.644,3.572,3.572,0,0,1,3.657-3.814,3.928,3.928,0,0,1,1.717.38l-.276.878a2.894,2.894,0,0,0-1.467-.367,2.567,2.567,0,0,0-2.517,2.857,2.519,2.519,0,0,0,2.478,2.818,3.583,3.583,0,0,0,1.546-.353Z"/><path class="cls-2" d="M611.427,111.136a5.175,5.175,0,0,1-2.241.446c-2.084,0-3.33-1.469-3.33-3.6,0-2.243,1.259-3.854,3.186-3.854,2.2,0,2.766,2.019,2.766,3.264,0,.249-.014.432-.027.6h-4.863c.014,1.98,1.141,2.727,2.425,2.727a4.532,4.532,0,0,0,1.875-.367Zm-.7-3.958c.014-.97-.393-2.229-1.795-2.229-1.311,0-1.887,1.245-1.993,2.229Z"/><path class="cls-2" d="M616.777,105.382a2.557,2.557,0,0,0-1.389-.419,1.075,1.075,0,0,0-1.205,1.061c0,.617.406.905,1.323,1.3,1.153.472,1.822,1.074,1.822,2.15,0,1.271-.97,2.11-2.53,2.11a3.786,3.786,0,0,1-1.874-.485l.3-.839a3.4,3.4,0,0,0,1.612.485c.957,0,1.429-.512,1.429-1.153,0-.669-.381-1.036-1.325-1.416-1.206-.486-1.822-1.153-1.822-2.019a2.112,2.112,0,0,1,2.334-2.031,3.152,3.152,0,0,1,1.638.433Z"/><rect class="cls-3" x="746" width="95" height="181" rx="3"/><path class="cls-2" d="M762.755,88.1,760,98.07h-1.113l-1.3-5.335a29.012,29.012,0,0,1-.669-3.3H756.9a28.973,28.973,0,0,1-.787,3.29l-1.441,5.347h-1.114L751.076,88.1h1.153l1.22,5.19c.288,1.259.564,2.464.734,3.46h.039c.144-1.009.472-2.188.8-3.473L756.4,88.1h1.1l1.258,5.164c.275,1.193.564,2.386.708,3.473h.039c.2-1.14.473-2.241.787-3.473l1.35-5.164Z"/><path class="cls-2" d="M770.048,94.439c0,2.662-1.757,3.789-3.343,3.789-1.835,0-3.25-1.376-3.25-3.683,0-2.439,1.521-3.788,3.342-3.788C768.75,90.757,770.048,92.251,770.048,94.439Zm-3.29-2.831c-1.547,0-2.189,1.521-2.189,2.9,0,1.586.878,2.871,2.162,2.871s2.2-1.285,2.2-2.9C768.934,93.207,768.317,91.608,766.758,91.608Z"/><path class="cls-2" d="M774.967,91.845a3.112,3.112,0,0,0-.394-.027c-1.179,0-1.782,1.166-1.782,2.372v3.88H771.7V93.063c0-.76-.014-1.455-.053-2.136h.957l.052,1.376h.04a2.139,2.139,0,0,1,1.94-1.533,2.82,2.82,0,0,1,.328.039Z"/><path class="cls-2" d="M781.784,98.07h-1.337l-2.464-3.525-.655.747V98.07H776.24V87.584h1.088v6.672h.026c.17-.249.419-.564.616-.8l2.136-2.53h1.311l-2.687,2.949Z"/><path class="cls-2" d="M783.845,98.07h-1.088V87.584h1.088Z"/><path class="cls-2" d="M792.077,94.439c0,2.662-1.757,3.789-3.343,3.789-1.835,0-3.25-1.376-3.25-3.683,0-2.439,1.521-3.788,3.342-3.788C790.779,90.757,792.077,92.251,792.077,94.439Zm-3.29-2.831c-1.547,0-2.188,1.521-2.188,2.9,0,1.586.878,2.871,2.162,2.871s2.2-1.285,2.2-2.9C790.963,93.207,790.347,91.608,788.787,91.608Z"/><path class="cls-2" d="M798.411,96.366a9.966,9.966,0,0,0,.106,1.7h-1l-.106-.918h-.039a2.482,2.482,0,0,1-2.11,1.076,1.98,1.98,0,0,1-2.084-2.032c0-1.717,1.494-2.648,4.141-2.634,0-.6,0-1.966-1.625-1.966a3.093,3.093,0,0,0-1.743.51l-.263-.747a4.071,4.071,0,0,1,2.176-.6c2.019,0,2.543,1.429,2.543,2.844Zm-1.074-2c-1.351,0-3.041.2-3.041,1.7a1.188,1.188,0,0,0,1.231,1.325,1.747,1.747,0,0,0,1.81-1.678Z"/><path class="cls-2" d="M806.278,96.3c0,.577.027,1.284.053,1.769h-.97l-.052-1.218h-.039a2.528,2.528,0,0,1-2.333,1.376C801.284,98.228,800,96.8,800,94.6c0-2.411,1.416-3.827,3.08-3.827a2.292,2.292,0,0,1,2.084,1.1h.026V87.584h1.088Zm-1.088-2.517a1.975,1.975,0,0,0-1.926-2.137c-1.35,0-2.15,1.259-2.15,2.9,0,1.507.708,2.791,2.111,2.791a2.055,2.055,0,0,0,1.965-2.176Z"/><path class="cls-2" d="M811.525,88.214a12.544,12.544,0,0,1,2.268-.2c3.225,0,3.486,2.071,3.486,2.857,0,2.347-1.874,3.186-3.643,3.186a4.158,4.158,0,0,1-1.023-.092v4.1h-1.088Zm1.088,4.849a3.967,3.967,0,0,0,1.049.105c1.572,0,2.529-.786,2.529-2.215s-1.022-2.057-2.385-2.057a5.764,5.764,0,0,0-1.193.1Z"/><path class="cls-2" d="M825.029,94.439c0,2.662-1.757,3.789-3.342,3.789-1.835,0-3.25-1.376-3.25-3.683,0-2.439,1.52-3.788,3.341-3.788C823.731,90.757,825.029,92.251,825.029,94.439Zm-3.29-2.831c-1.547,0-2.188,1.521-2.188,2.9,0,1.586.878,2.871,2.162,2.871s2.2-1.285,2.2-2.9C823.915,93.207,823.3,91.608,821.739,91.608Z"/><path class="cls-2" d="M832.451,96.3c0,.577.027,1.284.053,1.769h-.97l-.053-1.218h-.039a2.526,2.526,0,0,1-2.333,1.376c-1.652,0-2.936-1.429-2.936-3.631,0-2.411,1.416-3.827,3.08-3.827a2.292,2.292,0,0,1,2.084,1.1h.026V87.584h1.088Zm-1.088-2.517a1.976,1.976,0,0,0-1.926-2.137c-1.35,0-2.15,1.259-2.15,2.9,0,1.507.708,2.791,2.11,2.791a2.055,2.055,0,0,0,1.966-2.176Z"/><rect class="cls-3" x="644" width="95" height="181" rx="3"/><path class="cls-2" d="M660.755,88.1,658,98.07h-1.113l-1.3-5.335a29.012,29.012,0,0,1-.669-3.3H654.9a28.973,28.973,0,0,1-.787,3.29l-1.441,5.347h-1.114L649.076,88.1h1.153l1.22,5.19c.288,1.259.564,2.464.734,3.46h.039c.144-1.009.472-2.188.8-3.473L654.4,88.1h1.1l1.258,5.164c.275,1.193.564,2.386.708,3.473h.039c.2-1.14.473-2.241.787-3.473l1.35-5.164Z"/><path class="cls-2" d="M668.048,94.439c0,2.662-1.757,3.789-3.343,3.789-1.835,0-3.25-1.376-3.25-3.683,0-2.439,1.521-3.788,3.342-3.788C666.75,90.757,668.048,92.251,668.048,94.439Zm-3.29-2.831c-1.547,0-2.189,1.521-2.189,2.9,0,1.586.878,2.871,2.162,2.871s2.2-1.285,2.2-2.9C666.934,93.207,666.317,91.608,664.758,91.608Z"/><path class="cls-2" d="M672.967,91.845a3.112,3.112,0,0,0-.394-.027c-1.179,0-1.782,1.166-1.782,2.372v3.88H669.7V93.063c0-.76-.014-1.455-.053-2.136h.957l.052,1.376h.04a2.139,2.139,0,0,1,1.94-1.533,2.82,2.82,0,0,1,.328.039Z"/><path class="cls-2" d="M679.784,98.07h-1.337l-2.464-3.525-.655.747V98.07H674.24V87.584h1.088v6.672h.026c.17-.249.419-.564.616-.8l2.136-2.53h1.311l-2.687,2.949Z"/><path class="cls-2" d="M681.845,98.07h-1.088V87.584h1.088Z"/><path class="cls-2" d="M690.077,94.439c0,2.662-1.757,3.789-3.343,3.789-1.835,0-3.25-1.376-3.25-3.683,0-2.439,1.521-3.788,3.342-3.788C688.779,90.757,690.077,92.251,690.077,94.439Zm-3.29-2.831c-1.547,0-2.188,1.521-2.188,2.9,0,1.586.878,2.871,2.162,2.871s2.2-1.285,2.2-2.9C688.963,93.207,688.347,91.608,686.787,91.608Z"/><path class="cls-2" d="M696.411,96.366a9.966,9.966,0,0,0,.106,1.7h-1l-.106-.918h-.039a2.482,2.482,0,0,1-2.11,1.076,1.98,1.98,0,0,1-2.084-2.032c0-1.717,1.494-2.648,4.141-2.634,0-.6,0-1.966-1.625-1.966a3.093,3.093,0,0,0-1.743.51l-.263-.747a4.071,4.071,0,0,1,2.176-.6c2.019,0,2.543,1.429,2.543,2.844Zm-1.074-2c-1.351,0-3.041.2-3.041,1.7a1.188,1.188,0,0,0,1.231,1.325,1.747,1.747,0,0,0,1.81-1.678Z"/><path class="cls-2" d="M704.278,96.3c0,.577.027,1.284.053,1.769h-.97l-.052-1.218h-.039a2.528,2.528,0,0,1-2.333,1.376C699.284,98.228,698,96.8,698,94.6c0-2.411,1.416-3.827,3.08-3.827a2.292,2.292,0,0,1,2.084,1.1h.026V87.584h1.088Zm-1.088-2.517a1.975,1.975,0,0,0-1.926-2.137c-1.35,0-2.15,1.259-2.15,2.9,0,1.507.708,2.791,2.111,2.791a2.055,2.055,0,0,0,1.965-2.176Z"/><path class="cls-2" d="M709.525,88.214a12.544,12.544,0,0,1,2.268-.2c3.225,0,3.486,2.071,3.486,2.857,0,2.347-1.874,3.186-3.643,3.186a4.158,4.158,0,0,1-1.023-.092v4.1h-1.088Zm1.088,4.849a3.967,3.967,0,0,0,1.049.105c1.572,0,2.529-.786,2.529-2.215s-1.022-2.057-2.385-2.057a5.764,5.764,0,0,0-1.193.1Z"/><path class="cls-2" d="M723.029,94.439c0,2.662-1.757,3.789-3.342,3.789-1.835,0-3.25-1.376-3.25-3.683,0-2.439,1.52-3.788,3.341-3.788C721.731,90.757,723.029,92.251,723.029,94.439Zm-3.29-2.831c-1.547,0-2.188,1.521-2.188,2.9,0,1.586.878,2.871,2.162,2.871s2.2-1.285,2.2-2.9C721.915,93.207,721.3,91.608,719.739,91.608Z"/><path class="cls-2" d="M730.451,96.3c0,.577.027,1.284.053,1.769h-.97l-.053-1.218h-.039a2.526,2.526,0,0,1-2.333,1.376c-1.652,0-2.936-1.429-2.936-3.631,0-2.411,1.416-3.827,3.08-3.827a2.292,2.292,0,0,1,2.084,1.1h.026V87.584h1.088Zm-1.088-2.517a1.976,1.976,0,0,0-1.926-2.137c-1.35,0-2.15,1.259-2.15,2.9,0,1.507.708,2.791,2.11,2.791a2.055,2.055,0,0,0,1.966-2.176Z"/><rect class="cls-3" x="440" width="95" height="181" rx="3"/><path class="cls-2" d="M456.755,88.1,454,98.07h-1.113l-1.3-5.335a29.012,29.012,0,0,1-.669-3.3H450.9a28.973,28.973,0,0,1-.787,3.29l-1.441,5.347h-1.114L445.076,88.1h1.153l1.22,5.19c.288,1.259.564,2.464.734,3.46h.039c.144-1.009.472-2.188.8-3.473L450.4,88.1h1.1l1.258,5.164c.275,1.193.564,2.386.708,3.473h.039c.2-1.14.473-2.241.787-3.473l1.35-5.164Z"/><path class="cls-2" d="M464.048,94.439c0,2.662-1.757,3.789-3.343,3.789-1.835,0-3.25-1.376-3.25-3.683,0-2.439,1.521-3.788,3.342-3.788C462.75,90.757,464.048,92.251,464.048,94.439Zm-3.29-2.831c-1.547,0-2.189,1.521-2.189,2.9,0,1.586.878,2.871,2.162,2.871s2.2-1.285,2.2-2.9C462.934,93.207,462.317,91.608,460.758,91.608Z"/><path class="cls-2" d="M468.967,91.845a3.112,3.112,0,0,0-.394-.027c-1.179,0-1.782,1.166-1.782,2.372v3.88H465.7V93.063c0-.76-.014-1.455-.053-2.136h.957l.052,1.376h.04a2.139,2.139,0,0,1,1.94-1.533,2.82,2.82,0,0,1,.328.039Z"/><path class="cls-2" d="M475.784,98.07h-1.337l-2.464-3.525-.655.747V98.07H470.24V87.584h1.088v6.672h.026c.17-.249.419-.564.616-.8l2.136-2.53h1.311l-2.687,2.949Z"/><path class="cls-2" d="M477.845,98.07h-1.088V87.584h1.088Z"/><path class="cls-2" d="M486.077,94.439c0,2.662-1.757,3.789-3.343,3.789-1.835,0-3.25-1.376-3.25-3.683,0-2.439,1.521-3.788,3.342-3.788C484.779,90.757,486.077,92.251,486.077,94.439Zm-3.29-2.831c-1.547,0-2.188,1.521-2.188,2.9,0,1.586.878,2.871,2.162,2.871s2.2-1.285,2.2-2.9C484.963,93.207,484.347,91.608,482.787,91.608Z"/><path class="cls-2" d="M492.411,96.366a9.966,9.966,0,0,0,.106,1.7h-1l-.106-.918h-.039a2.482,2.482,0,0,1-2.11,1.076,1.98,1.98,0,0,1-2.084-2.032c0-1.717,1.494-2.648,4.141-2.634,0-.6,0-1.966-1.625-1.966a3.093,3.093,0,0,0-1.743.51l-.263-.747a4.071,4.071,0,0,1,2.176-.6c2.019,0,2.543,1.429,2.543,2.844Zm-1.074-2c-1.351,0-3.041.2-3.041,1.7a1.188,1.188,0,0,0,1.231,1.325,1.747,1.747,0,0,0,1.81-1.678Z"/><path class="cls-2" d="M500.278,96.3c0,.577.027,1.284.053,1.769h-.97l-.052-1.218h-.039a2.528,2.528,0,0,1-2.333,1.376C495.284,98.228,494,96.8,494,94.6c0-2.411,1.416-3.827,3.08-3.827a2.292,2.292,0,0,1,2.084,1.1h.026V87.584h1.088Zm-1.088-2.517a1.975,1.975,0,0,0-1.926-2.137c-1.35,0-2.15,1.259-2.15,2.9,0,1.507.708,2.791,2.111,2.791a2.055,2.055,0,0,0,1.965-2.176Z"/><path class="cls-2" d="M505.525,88.214a12.544,12.544,0,0,1,2.268-.2c3.225,0,3.486,2.071,3.486,2.857,0,2.347-1.874,3.186-3.643,3.186a4.158,4.158,0,0,1-1.023-.092v4.1h-1.088Zm1.088,4.849a3.967,3.967,0,0,0,1.049.105c1.572,0,2.529-.786,2.529-2.215s-1.022-2.057-2.385-2.057a5.764,5.764,0,0,0-1.193.1Z"/><path class="cls-2" d="M519.029,94.439c0,2.662-1.757,3.789-3.342,3.789-1.835,0-3.25-1.376-3.25-3.683,0-2.439,1.52-3.788,3.341-3.788C517.731,90.757,519.029,92.251,519.029,94.439Zm-3.29-2.831c-1.547,0-2.188,1.521-2.188,2.9,0,1.586.878,2.871,2.162,2.871s2.2-1.285,2.2-2.9C517.915,93.207,517.3,91.608,515.739,91.608Z"/><path class="cls-2" d="M526.451,96.3c0,.577.027,1.284.053,1.769h-.97l-.053-1.218h-.039a2.526,2.526,0,0,1-2.333,1.376c-1.652,0-2.936-1.429-2.936-3.631,0-2.411,1.416-3.827,3.08-3.827a2.292,2.292,0,0,1,2.084,1.1h.026V87.584h1.088Zm-1.088-2.517a1.976,1.976,0,0,0-1.926-2.137c-1.35,0-2.15,1.259-2.15,2.9,0,1.507.708,2.791,2.11,2.791a2.055,2.055,0,0,0,1.966-2.176Z"/><line class="cls-7" y1="328" x2="867.169" y2="328"/><line class="cls-7" x1="221.5" y1="291" x2="221.5" y2="328"/><line class="cls-7" x1="640.5" y1="291" x2="640.5" y2="328"/></g></g></svg>